<svg width="329" height="111" viewBox="0 0 329 111" fill="none" xmlns="http://www.w3.org/2000/svg">
<path d="M184.196 13.9819H184.763C189.107 20.6426 191.656 25.5876 192.414 28.8199L192.131 29.1052H191.281C189.581 27.585 188.731 26.6348 188.731 26.2518H188.447V26.5371C192.791 50.698 194.965 64.3903 194.965 67.6268C194.965 73.3337 192.507 77.2308 187.597 79.326L180.23 82.1794C173.428 85.0329 168.138 89.5984 164.361 95.8753C160.394 102.338 156.327 105.577 152.176 105.577H151.326C147.168 105.577 144.334 102.911 142.825 97.5873V91.8804C142.825 90.1684 144.618 85.7904 148.209 78.7545H147.925C140.744 84.8402 133.376 92.068 125.822 100.441C119.021 107.477 114.013 110.999 110.803 110.999H108.82C103.719 110.999 100.695 107.098 99.7518 99.3001V97.8734C99.7518 93.4948 101.355 88.457 104.569 82.7501L104.853 82.1794V81.038C102.395 81.4168 97.6704 83.3201 90.6838 86.7449C86.3354 89.9772 82.8421 93.5932 80.1989 97.5873C76.4173 103.294 72.45 106.148 68.2972 106.148H67.4471C62.9131 106.148 59.8887 103.959 58.3791 99.5855V93.0218C58.3791 90.5471 61.6825 83.7923 68.2972 72.763C65.6497 73.5213 63.856 73.9051 62.9131 73.9051C58.7552 73.9051 55.7316 71.7158 53.8451 67.3415C53.2783 64.8668 52.2376 63.6327 50.728 63.6327C49.4039 63.8196 47.3275 65.4382 44.4937 68.4836C43.1696 70.5744 42.5101 71.9077 42.5101 72.4791C44.9627 76.0909 47.4203 77.9007 49.8778 77.9007C54.9786 79.042 57.5289 80.7541 57.5289 83.0362V83.3215C57.5289 85.7919 57.1478 87.031 56.3954 87.031L47.6108 85.0336H42.2267C35.4257 87.3156 30.5106 90.5479 27.4912 94.7353C26.9245 95.3067 23.8074 98.7301 18.1399 105.008C15.6823 106.907 12.9421 107.861 9.92202 107.861H9.07189C6.61433 107.861 4.06466 106.528 1.42078 103.866C0.4736 102.154 0.00390625 100.25 0.00390625 98.1594V96.4474C0.00390625 93.0225 2.17385 87.4098 6.52152 79.612V79.3267C3.68778 76.4732 2.2709 73.4272 2.2709 70.1949V67.0568C2.2709 58.8753 6.04758 49.0801 13.6059 37.6663L14.7394 36.8102L15.0228 37.3809C15.0228 37.9516 12.8486 42.4237 8.50514 50.7921C6.04758 57.0697 4.82127 61.5375 4.82127 64.2034C4.82127 69.5265 6.23815 72.5718 9.07189 73.3344H9.35527C11.2411 73.3344 12.8486 71.0524 14.1726 66.4861L14.456 66.2008H15.0228V67.3422C15.0228 70.5744 13.8893 74.0927 11.6223 77.9007C8.40738 79.6127 6.8049 81.2263 6.8049 82.7515C3.21383 88.8365 1.42078 93.1167 1.42078 95.592V98.4455C2.36371 102.441 4.15676 104.437 6.8049 104.437C10.2054 104.437 15.0228 100.345 21.257 92.1679C25.9773 86.8398 30.5113 83.1303 34.859 81.0394L40.5265 77.9007L40.2431 74.7619C40.2431 67.7217 42.5101 62.7774 47.0441 59.9239C49.1205 57.828 51.2947 56.7858 53.5617 56.7858C54.6952 56.7858 56.4883 59.2555 58.9458 64.2041C60.6461 66.295 62.2485 67.3422 63.7632 67.3422C65.8396 67.3422 72.1667 65.4389 82.7493 61.6353V60.7799C79.725 59.8255 75.0004 58.2118 68.5806 55.9284L67.7304 55.6437L66.5969 56.7858L55.5453 55.9291C56.1121 51.7431 57.8123 49.6522 60.6461 49.6522L63.1964 49.3669H67.1637C70.3736 49.3669 76.9847 51.4577 86.9999 55.6444C93.8009 57.3558 100.128 58.5921 105.986 59.3539L106.269 59.9239C105.512 61.8236 104.471 63.5357 103.152 65.0601L97.7681 64.2041C90.586 64.2041 82.3689 66.4868 73.1145 71.0531C71.0317 72.7644 68.39 76.1886 65.1801 81.3248C61.7796 87.4105 60.0793 92.2614 60.0793 95.8767C60.0793 99.6803 61.3056 101.869 63.7632 102.44H66.5969C68.6734 102.44 74.0575 97.0181 82.7493 86.1749C89.7366 80.2762 95.5939 76.9455 100.319 76.1879C106.362 73.9058 109.386 72.2865 109.386 71.337V68.4836C109.386 66.3877 108.062 58.9694 105.419 46.2266C103.338 33.2926 101.829 24.9235 100.885 21.1163C101.452 18.0752 102.019 16.5507 102.586 16.5507H102.869C108.155 25.4949 110.803 30.5326 110.803 31.674L110.237 32.2447L106.269 28.8206L111.653 61.3499L112.22 67.0568C112.22 72.3799 110.613 76.9455 107.403 80.7534C104.188 86.8391 102.586 91.7841 102.586 95.5913V96.162C102.586 100.157 103.905 102.819 106.553 104.152H108.253C113.73 104.152 123.082 96.7334 136.307 81.8948C141.027 77.708 146.601 73.3344 153.026 68.7689L153.876 68.1989V67.9136C149.152 66.2015 145.092 63.7268 141.691 60.4946C141.124 59.7327 140.65 57.9265 140.274 55.073C140.274 52.0277 142.351 49.9368 146.509 48.7954H150.192C157.179 48.7954 169.272 50.3206 186.464 53.361C187.217 53.361 187.598 53.6463 187.598 54.217C186.651 58.0199 185.14 59.9239 183.065 59.9239C179.097 61.8236 176.923 62.8715 176.547 63.062C175.79 64.9617 175.413 66.8656 175.413 68.7689V69.0542L176.547 70.1956C177.3 70.1956 177.964 69.3403 178.531 67.6275C178.531 68.0063 178.814 68.1989 179.381 68.1989V68.4836C178.814 71.7158 178.34 73.3344 177.964 73.3344H177.114C175.032 72.7637 173.997 71.9077 173.997 70.7663V67.3415L174.847 63.918V63.6327C166.722 66.673 162.662 68.2917 162.662 68.4836V69.0542C164.548 70.7663 165.495 72.7637 165.495 75.0465V77.0439L164.646 77.6146H164.079C161.245 77.6146 159.071 75.996 157.562 72.7637H156.995C153.404 72.7637 149.437 78.6582 145.093 90.4551C144.713 91.0265 144.526 91.7841 144.526 92.7379V95.5913C145.093 99.2031 146.696 101.014 149.344 101.014C153.311 101.014 156.995 98.2536 160.395 92.7379C166.248 83.7937 173.333 77.9934 181.648 75.3325C188.635 73.0491 192.133 71.0524 192.133 69.3403C192.133 68.3858 190.242 57.7339 186.466 37.3816C185.518 29.5839 184.384 23.3063 183.065 18.5489C183.065 17.5994 183.441 16.0792 184.199 13.9833L184.196 13.9819ZM22.3891 76.7578C24.6561 77.8992 25.7896 79.1333 25.7896 80.4666C25.7896 81.4168 24.559 81.8933 22.1057 81.8933C22.1057 84.9344 18.798 89.1204 12.1876 94.4485C10.1062 96.1606 8.40596 97.2042 7.08685 97.5873L6.80348 97.302C15.8715 88.549 20.4055 83.6982 20.4055 82.7494V78.4692L22.3891 76.7571V76.7578ZM95.4997 17.9767V18.5474C95.4997 19.8807 92.2855 21.4009 85.865 23.113C57.337 32.8147 36.1774 41.5669 22.3891 49.3647L20.9722 50.2207C20.5911 50.2207 20.4055 49.9354 20.4055 49.3647C20.4055 47.8445 27.6761 43.8497 42.2253 37.3802C55.2605 31.6733 71.6963 25.4942 91.5325 18.8328L95.4997 17.9767ZM33.7241 54.2156C35.2337 54.7863 35.9911 55.5439 35.9911 56.4983V57.3537L35.4243 57.9251H34.8576C34.1002 57.1632 33.7241 56.4983 33.7241 55.9269C32.2094 55.9269 31.2665 59.7306 30.8903 67.3407V68.1975L30.3236 68.4828H30.0402C29.6591 68.4828 29.2829 67.3407 28.9067 65.0587C27.7732 63.3466 26.8253 62.2052 26.073 61.6338H22.6725C21.9151 61.0639 21.539 60.2071 21.539 59.0657C21.7253 58.3039 22.1985 57.9244 22.9558 57.9244C25.7896 57.9244 27.9595 60.0159 29.4734 64.2019H30.0402V60.4925C30.0402 57.6397 31.2665 55.5439 33.7241 54.2156ZM38.8248 21.4009C40.5251 22.3547 41.3752 23.4967 41.3752 24.825L40.5251 25.3957H40.2417L38.5414 23.969C37.0275 23.969 35.7077 28.1557 34.5742 36.5242L34.2908 36.8095H34.0074C33.4407 36.8095 32.8739 35.3828 32.3072 32.5293L30.0402 29.1052L28.0566 29.9612H27.4898C25.5997 29.3906 24.6561 28.3476 24.6561 26.8224V25.6811C24.6561 25.3023 25.3163 25.1104 26.6397 25.1104H26.9231C28.9995 25.1104 31.36 27.4909 34.0074 32.244H34.2908V31.6733C35.0432 24.825 36.5578 21.4009 38.8248 21.4009ZM45.3424 94.7346C48.9292 96.0636 50.7265 97.3027 50.7265 98.4441C50.7265 99.2024 49.8764 101.013 48.1762 103.866C47.6094 103.866 46.0948 102.912 43.6422 101.013H42.5087L41.3752 104.152L40.2417 104.722C36.4608 103.01 34.5742 101.771 34.5742 101.014C34.5742 100.059 35.4243 98.1602 37.1246 95.3067L42.5087 98.4455L45.3424 94.736V94.7346ZM47.8928 41.375C48.0784 41.375 48.1762 41.9457 48.1762 43.0871C50.4432 44.2285 51.5767 45.3699 51.5767 46.5113V47.6526C50.6295 50.1273 49.3097 51.3621 47.6094 51.3621H46.4759C45.3424 51.3621 44.7757 50.698 44.7757 49.3647V48.5087C46.2854 43.7555 47.326 41.375 47.8928 41.375ZM45.9092 48.794L46.4759 49.3647C48.9285 48.9859 50.1598 48.4145 50.1598 47.6526V47.082C49.2126 45.9406 48.2697 45.3699 47.326 45.3699C46.7593 45.3699 46.2854 46.5113 45.9092 48.794ZM60.6446 13.9819C64.2315 13.9819 66.0288 14.2673 66.0288 14.8379V15.694C66.0288 17.7898 64.6119 20.1661 61.7781 22.8276C58.5633 24.5397 56.2035 25.3957 54.6938 25.3957L54.127 24.825C55.4468 23.6836 57.5275 22.2569 60.3613 20.5448V19.6888H54.9772L52.9935 20.2595H52.1434L51.5767 19.6888C52.8965 15.8859 54.8801 13.9819 57.5275 13.9819H60.6446ZM67.729 31.388L68.0124 31.6733C66.4977 35.4812 65.7454 38.0494 65.7454 39.3776C65.7454 40.1402 66.0288 40.8044 66.5955 41.375H67.4456C67.6312 41.375 68.0124 40.4256 68.5791 38.5216H69.1459L69.4293 39.0923V39.9483C69.4293 41.4735 68.6719 42.8018 67.1623 43.9432C65.0809 43.3725 64.0451 42.423 64.0451 41.0897V39.0923C64.0451 36.0519 65.2714 33.4838 67.729 31.388ZM68.2958 84.4622L69.1459 85.0336V87.031C70.465 87.031 71.5985 87.887 72.5464 89.5998V90.7412C72.5464 92.6402 71.2223 93.9734 68.5791 94.736H67.729C66.5955 94.736 66.0288 93.7815 66.0288 91.8826C66.9717 88.0732 67.729 85.605 68.2958 84.4636V84.4622ZM68.2958 88.7423L67.729 90.7405V92.1672H68.2958C69.4293 92.1672 70.2794 91.7841 70.8461 91.0258V90.7405C70.2794 90.1698 69.4293 89.4992 68.2958 88.7431V88.7423ZM79.3474 72.763H80.7642C81.331 72.763 81.6144 73.1418 81.6144 73.9051L80.1975 78.4699H81.6144C83.3146 78.4699 85.7672 76.5659 88.9821 72.763L89.5489 73.3337C88.9821 75.6165 86.9014 77.8992 83.3146 80.182C82.1811 80.5608 81.1404 80.7534 80.1975 80.7534H79.3474C78.59 80.5608 78.2139 80.0843 78.2139 79.3267L79.3474 75.3318V75.0465H78.2139L77.6471 75.6172H77.0804L76.5136 75.0465C76.8891 73.5199 77.8313 72.7637 79.3474 72.7637V72.763ZM91.5325 33.6707C93.4183 35.574 94.459 37.3802 94.6496 39.0923V39.9483C94.6496 41.6604 93.9851 42.5164 92.666 42.5164C91.3419 42.3288 90.3019 42.0435 89.5489 41.6604C89.5489 43.1856 88.3183 44.0416 85.865 44.2285C84.3503 44.0416 83.598 43.3725 83.598 42.2311V38.2362L81.6144 39.3776V38.5216C81.9905 36.8095 82.8407 35.9535 84.1647 35.9535L85.0149 36.5242V41.375C85.0149 41.5669 85.6744 41.8523 86.9985 42.2311H87.2819C87.8486 41.8523 88.132 41.375 88.132 40.8044V40.2337L86.9985 34.5268H87.8486C88.2248 34.5268 89.1677 36.1454 90.6824 39.3776L91.2491 39.9483H92.666L92.9493 39.3776L90.6824 34.5268L91.5325 33.6707ZM88.132 94.4492C91.7188 95.3994 93.7995 99.3008 94.3662 106.148C93.7995 108.81 93.2327 110.143 92.666 110.143L92.0992 109.573C92.4754 108.431 92.666 107.29 92.666 106.148V105.578C92.666 103.103 91.152 100.344 88.132 97.302L87.5652 95.8753C87.7494 94.9193 87.9407 94.4485 88.132 94.4485V94.4492ZM121.57 4.56552C122.889 4.56552 123.554 5.13621 123.554 6.27759V7.41897C122.42 10.0855 120.813 11.4138 118.736 11.4138H117.886L117.603 11.1285H117.32L116.186 13.1259L115.336 12.8405L115.619 10.8431H115.336C114.956 10.8431 114.295 11.2269 113.352 11.9845C112.595 11.9845 111.935 11.6057 111.369 10.8431H111.085C110.519 10.8431 109.761 11.2269 108.818 11.9845H108.252V11.4138C108.252 9.89363 109.478 8.94414 111.935 8.56035C112.312 9.32294 112.971 9.70174 113.919 9.70174H114.202V5.42156H114.486C114.862 5.42156 115.522 6.46949 116.469 8.56035H117.036C118.921 5.8988 120.437 4.56552 121.57 4.56552ZM117.036 76.7578L117.32 77.0425V77.3271C115.429 83.2223 114.486 87.0296 114.486 88.7409C114.671 90.0699 115.336 90.739 116.469 90.739C117.603 90.739 118.17 89.7846 118.17 87.8856L119.02 87.3142L119.303 87.5995V89.8823C119.303 92.1651 118.262 93.6852 116.186 94.4471H115.619C113.728 94.4471 112.786 92.6373 112.786 89.0255C112.786 87.1223 114.012 83.2209 116.469 77.3264L117.036 76.7557V76.7578ZM117.886 15.694C122.04 21.5928 124.497 26.3502 125.254 29.9612L124.971 30.8173H124.121L121.287 27.6785V28.2492L124.971 53.0742C126.48 61.4434 127.238 67.0561 127.238 69.9096C126.48 76.9447 125.914 80.4673 125.537 80.4673H124.971C124.59 80.4673 124.121 77.5162 123.554 71.6216C121.472 53.3603 119.49 39.093 117.603 28.8199C117.603 25.9664 117.129 23.3983 116.186 21.1155C116.753 17.5045 117.32 15.694 117.886 15.694ZM118.453 9.13105H119.87C120.813 9.13105 121.472 8.8457 121.854 8.27501V6.84828H120.437C119.87 7.23207 119.204 7.98966 118.453 9.13105ZM139.706 100.156L139.99 100.441V101.583C139.608 102.533 137.058 104.436 132.338 107.29C129.881 109.76 128.181 111 127.238 111L126.954 110.715V109.573C129.407 106.527 133.565 103.388 139.423 100.156H139.706ZM143.673 3.70949C144.993 3.70949 146.693 5.99225 148.774 10.5578L149.341 13.6966V16.2647H149.624C151.134 16.2647 155.668 14.1731 163.226 9.98708L164.926 9.70174H165.21L166.06 10.8431V11.6992C166.06 12.6536 163.979 15.3152 159.826 19.6888C159.068 21.214 158.692 22.5423 158.692 23.6836V23.969C170.594 19.7873 177.204 17.6914 178.528 17.6914L178.812 17.9767V18.2621C178.812 19.4035 173.994 21.4009 164.36 24.2543C142.823 31.8652 132.055 36.908 132.055 39.3776V39.9483C135.832 40.3321 137.723 40.8044 137.723 41.375C137.723 42.1376 137.532 42.6149 137.156 42.8018H136.022C132.241 42.423 130.355 41.4735 130.355 39.9483V39.3776C130.355 35.574 139.042 30.6297 156.425 24.5397C156.992 24.1609 157.652 22.6407 158.409 19.9742C159.352 18.2621 161.243 15.8859 164.076 12.8405L163.793 12.2698H163.226L153.592 17.6914L148.207 19.4035L143.957 19.6888H142.823C142.066 19.6888 140.556 19.4035 138.289 18.8328H138.006L136.022 20.2595H133.755L131.772 19.1181C131.391 19.31 130.731 19.9742 129.788 21.1155L128.938 20.5448V19.6888C130.257 17.5979 131.205 16.55 131.772 16.55C132.525 16.55 133.472 17.1207 134.605 18.2621L135.456 18.5474L136.306 17.1207L135.456 11.9845L135.739 11.6992H136.022L138.573 15.694C139.516 16.6477 140.649 17.1207 141.973 17.1207H147.641L147.924 15.694V14.5526C147.924 11.891 146.224 8.75225 142.823 5.13621V3.99483C142.823 3.80722 143.107 3.70949 143.673 3.70949ZM133.755 45.6552L134.039 46.5113L132.905 53.0742V54.2156L134.322 55.6423L136.022 53.0742C136.209 53.0742 136.306 53.2618 136.306 53.6449C136.306 55.7365 135.739 57.2566 134.605 58.2104H134.039C132.148 57.2559 131.205 56.1146 131.205 54.7863C131.956 48.7006 132.806 45.6552 133.755 45.6552ZM134.322 64.2027C138.289 65.3447 140.273 66.5789 140.273 67.9121C139.139 71.5239 138.382 73.3337 138.006 73.3337H137.439C136.115 73.1418 134.224 72.0004 131.772 69.9096V69.0535C132.905 65.817 133.755 64.2027 134.322 64.2027ZM143.957 55.6423V56.213C150.943 59.8248 155.477 62.7759 157.559 65.0587C163.413 62.3921 169.079 60.0166 174.561 57.9251V57.3537H173.994C161.526 55.8299 152.642 55.0716 147.357 55.0716C145.09 55.0716 143.957 55.2585 143.957 55.6423ZM158.692 33.3854H159.826C160.393 33.3854 160.861 34.2414 161.243 35.9535L160.676 36.8095L158.409 35.6681C157.085 36.8095 155.951 40.519 155.008 46.7966V47.082H154.442C154.06 47.082 153.592 45.7537 153.025 43.0871C151.891 41.1881 150.758 40.2337 149.624 40.2337C147.357 40.2337 146.224 39.5695 146.224 38.2362V37.6656C146.41 36.9073 147.074 36.5242 148.207 36.5242C149.908 36.5242 151.891 38.4274 154.158 42.2311H154.442C155.384 36.3373 156.801 33.3854 158.692 33.3854ZM154.442 82.7501C154.628 84.0784 155.008 84.7475 155.575 84.7475C157.085 85.3189 157.842 86.0765 157.842 87.0303V88.1724C157.842 90.2632 156.425 91.4981 153.592 91.8811H152.458C151.701 91.4981 151.325 90.9267 151.325 90.1691V89.5991C151.325 86.9311 152.359 84.6484 154.442 82.7508V82.7501ZM153.592 86.4596L152.741 89.5984L154.158 89.883C155.477 89.3123 156.142 88.8351 156.142 88.4563V87.8856C156.142 87.5004 155.292 87.0296 153.592 86.4589V86.4596ZM175.695 32.5293C176.828 32.5293 177.865 34.4333 178.812 38.2362V38.8069C178.621 40.519 177.864 41.375 176.545 41.375H175.695L174.561 40.519H174.278C174.278 41.6604 173.144 42.3288 170.877 42.5164C169.177 41.7581 168.326 40.3314 168.326 38.2362V37.3802C167.76 37.3802 167.477 37.1933 167.477 36.8095V35.9535L168.61 34.5268H169.177L170.027 35.6681V36.5242C170.027 39.19 170.496 40.519 171.444 40.519C172.578 40.3314 173.144 39.8542 173.144 39.0923L172.01 34.5268V34.2414L172.577 33.3854C173.33 33.7685 174.18 35.4812 175.128 38.5216L176.545 39.0923L176.828 38.8069H177.111L175.411 33.9561V33.3854L175.694 32.5293H175.695ZM179.662 90.7398C181.172 90.7398 181.929 90.9267 181.929 91.3104V91.8811C181.929 93.7801 180.795 95.9694 178.528 98.4441L178.245 99.8708H178.813C181.265 99.8708 185.047 97.4903 190.148 92.7372H190.43V93.5932C190.43 95.8753 187.03 99.0148 180.229 103.009L178.529 103.294C177.015 102.911 176.262 102.439 176.262 101.868V99.8701C176.262 98.5375 177.299 96.6328 179.379 94.1632V93.5925H179.096L175.129 94.7339V94.1632C175.129 92.6366 176.638 91.4952 179.663 90.739L179.662 90.7398ZM209.416 91.8811H209.7V93.0225C208.185 94.9222 203.182 98.061 194.681 102.44L185.897 108.147H185.614L185.33 107.575V106.72C186.841 104.815 191.091 101.868 198.082 97.8741C203.367 95.0207 207.15 93.0232 209.417 91.8819L209.416 91.8811ZM204.316 0.285345C205.825 0.285345 206.582 1.14138 206.582 2.85345C206.582 4.56552 205.165 6.09069 202.331 7.41897H200.631C200.064 8.75225 199.59 9.41639 199.214 9.41639V9.13105H198.647L199.214 8.27501L198.647 6.84828H198.364L194.963 8.27501L193.829 7.41897H192.979C192.979 8.18156 192.315 8.56035 190.995 8.56035C191.748 6.66067 192.412 5.52 192.979 5.13621H194.679L196.096 5.99225L196.946 5.42156L196.379 3.99483V1.99742L196.946 1.71207C197.132 1.71207 197.606 2.56811 198.363 4.28018L199.779 5.42156C201.664 1.99742 203.18 0.285345 204.313 0.285345H204.316ZM200.065 12.8405C205.351 21.4009 207.999 26.729 207.999 28.8199V29.1052H207.715C205.634 27.3931 204.217 26.5371 203.465 26.5371L206.865 46.7966H207.149C209.034 46.4178 213.099 44.135 219.333 39.9483L219.9 39.0923L219.333 37.3802C219.709 33.5773 220.559 31.6733 221.884 31.6733C223.96 31.6733 225.944 33.3854 227.834 36.8095V38.8069L226.701 39.9483H226.134L224.434 39.0923H222.45C222.26 40.6167 217.916 43.4702 209.415 47.6526L207.431 49.0794C208.75 56.4983 209.415 63.7254 209.415 70.7656C209.034 73.9978 208.658 75.6165 208.281 75.6165C207.715 75.6165 206.674 69.5258 205.164 57.3537C202.706 44.7992 200.722 32.5293 199.213 20.5448C198.456 19.4035 198.079 18.4533 198.079 17.6914C198.079 15.6005 198.738 13.9819 200.063 12.8405H200.065ZM318.799 40.8044C323.333 45.1823 325.6 47.938 325.6 49.0794V49.3647H324.75L323.049 48.794V49.0794C323.049 49.8412 324.466 53.0742 327.3 58.7804C328.434 62.0126 329 64.0108 329 64.7726V67.9114C329 71.9063 327.11 74.2832 323.333 75.0451H322.766C320.119 74.4737 317.475 73.0469 314.832 70.7649C314.265 74.7597 312.184 76.7571 308.597 76.7571H306.33C303.682 74.4737 302.08 73.3323 301.512 73.3323C299.813 77.3271 296.695 79.3245 292.162 79.3245C288.38 79.3245 285.263 76.1857 282.81 69.9081L281.96 69.0521H280.827C279.692 69.0521 277.71 70.7642 274.876 74.1883C274.119 75.3304 273.742 76.2792 273.742 77.0418C273.742 78.5627 277.045 80.5594 283.66 83.0333C285.361 84.1747 286.211 85.5015 286.211 87.0281V87.3128C286.211 89.7831 285.83 91.023 285.077 91.023C279.219 89.3109 275.912 88.4541 275.159 88.4541H273.459C267.978 88.4541 260.609 93.8764 251.356 104.719C248.142 107.002 245.59 108.144 243.705 108.144H242.004C239.923 107.951 237.847 106.904 235.77 105.005C234.447 102.53 233.689 100.247 233.503 98.1566C233.503 94.161 235.487 89.3109 239.454 83.604L243.138 79.3238V78.7524C241.247 77.0411 239.83 74.6606 238.887 71.6188H238.32C238.32 73.7104 237.28 76.2777 235.203 79.3238C231.803 82.5561 228.588 84.1747 225.569 84.1747C221.22 84.1747 218.01 81.4154 215.933 75.899L215.366 69.0507L216.217 61.6317C215.269 61.6317 213.95 66.6702 212.249 76.7557C210.735 81.3205 209.132 83.604 207.431 83.604H206.581C205.067 83.604 203.274 81.9847 201.197 78.7524C199.873 74.3745 199.213 71.7129 199.213 70.7635C199.59 65.6272 200.156 63.0584 200.913 63.0584H201.196L200.913 66.1972C200.913 73.8031 202.423 78.1824 205.447 79.3231H206.864C208.941 79.3231 210.734 74.7576 212.248 65.6265C214.325 58.0157 216.401 54.2127 218.483 54.2127H219.332L219.616 54.4981V56.2101C218.482 62.8672 217.915 66.9555 217.915 68.48C217.915 72.8543 219.235 75.7078 221.883 77.0403C223.017 77.611 224.243 77.8964 225.567 77.8964H225.85C230.003 77.8964 233.501 75.5152 236.335 70.7627L236.902 69.6214C236.902 67.1467 235.768 62.2951 233.501 55.0688V47.6498H233.784V47.0791C235.67 47.0791 237.752 52.786 240.019 64.1998C241.338 70.2855 243.987 73.3308 247.953 73.3308H248.236C250.122 73.3308 252.013 72.7602 253.904 71.6188V70.7627C253.904 69.6214 251.353 63.5307 246.252 52.5007C245.872 50.9805 245.685 49.7456 245.685 48.7912V47.9351C245.685 45.6524 245.872 44.3234 246.252 43.9403C249.462 45.8443 251.637 48.5058 252.77 51.93L252.487 52.5007H251.92L250.221 51.93C254.564 59.7277 256.738 66.0053 256.738 70.7627V71.3334C256.738 76.0866 254.471 78.94 249.937 79.8938H245.686C244.739 79.8938 243.322 81.3205 241.435 84.174C239.545 86.0737 237.655 89.4971 235.768 94.4457L235.485 96.4431V98.4405C235.485 102.243 237.37 104.147 241.152 104.147C244.171 104.147 249.556 99.2965 257.304 89.5955C262.972 85.6 267.692 83.0319 271.473 81.8905L270.906 78.7517V78.1817C270.906 73.4236 273.173 68.7646 277.707 64.1991C279.217 62.8665 280.825 62.2017 282.525 62.2017H283.375C284.885 63.1512 286.018 64.8625 286.775 67.3372C288.095 70.9489 290.079 72.7594 292.726 72.7594H294.426C297.636 72.7594 300.563 70.1906 303.21 65.0551L304.627 64.1991H305.194L304.911 66.4818V68.1939C306.797 69.5215 308.498 70.1906 310.011 70.1906C312.465 70.1906 314.262 68.002 315.396 63.6284L316.813 62.7724L317.096 63.057V65.0551H316.812V65.3405C318.889 67.4313 321.063 68.4786 323.33 68.4786H324.179L326.164 68.1939V67.6232C326.164 66.4818 324.366 62.0098 320.779 54.212C320.212 51.9293 319.079 49.2677 317.378 46.2223V44.5103C317.563 42.0406 318.037 40.8008 318.795 40.8008L318.799 40.8044ZM201.482 5.7069C203.558 5.32811 204.598 4.56552 204.598 3.42414V2.85345H203.748C202.615 2.85345 201.857 3.80722 201.481 5.7069H201.482ZM213.667 9.13105C217.82 10.8431 220.751 13.3178 222.452 16.55C223.205 18.6459 223.585 20.1661 223.585 21.1155V22.2569L224.152 22.8276L242.288 14.5526L250.222 11.9845L250.789 12.8405V13.1259C250.222 14.0804 244.457 16.55 233.503 20.5448C227.455 23.3983 220.654 26.9209 213.1 31.1026H212.817V29.9612C212.817 28.4411 215.367 26.729 220.468 24.825L222.452 23.113V21.4009C222.452 18.1686 219.52 14.651 213.667 10.8431L213.1 9.41639L213.667 9.13105ZM221.035 36.5242V36.8095L222.735 37.3802V35.6681L222.167 35.0975C221.409 35.0975 221.034 35.5747 221.034 36.5242H221.035ZM224.435 35.6681V36.8095L224.719 37.3802H225.852C225.852 36.2388 225.377 35.6681 224.435 35.6681ZM229.819 5.13621H230.386C230.762 5.13621 230.953 5.52 230.953 6.27759C231.329 6.27759 232.462 7.03946 234.353 8.56035C233.03 11.7976 231.422 13.4112 229.536 13.4112C228.402 13.4112 227.836 12.2698 227.836 9.98708C228.969 6.75483 229.628 5.13621 229.819 5.13621ZM229.536 8.56035L229.253 10.8431H230.387L231.237 10.5578V9.98708C231.237 9.03759 230.67 8.56035 229.537 8.56035H229.536ZM245.121 26.8224H245.405C247.291 28.9183 248.239 30.7238 248.239 32.244V33.3854C248.239 34.9098 247.671 35.6681 246.538 35.6681H245.688C245.121 35.6681 244.648 35.2893 244.271 34.5268H243.988C242.473 36.4307 241.154 37.3802 240.02 37.3802C238.32 37.3802 237.373 36.2388 237.186 33.9561V31.1026L235.769 32.244L235.203 31.6733V31.1026C235.203 29.3905 236.336 28.2492 238.603 27.6785H239.453C239.073 28.6322 238.789 30.2466 238.603 32.5293C238.979 33.8626 239.64 34.5268 240.587 34.5268C241.53 34.148 242.097 33.5773 242.287 32.8147L241.437 28.8199V27.3931H241.72C242.096 27.3931 243.039 29.0118 244.554 32.244L245.121 32.5293H246.538L244.554 27.3931L245.121 26.8224H245.121ZM245.121 88.1717H245.405V89.027C245.405 89.4058 246.254 89.9772 247.955 90.739L248.239 91.8804V93.3071C248.239 94.8273 246.915 95.9687 244.271 96.732C242.947 96.3482 242.287 95.6841 242.287 94.7339V93.8786C242.287 91.7813 243.229 89.8837 245.121 88.1717H245.121ZM244.555 91.3104L243.705 93.5932V94.4485H245.405C246.538 94.0655 247.104 93.4948 247.104 92.7372L244.837 91.3104H244.554H244.555ZM255.606 0.285345L258.44 4.56552C259.759 2.09586 260.991 0.57069 262.124 0H264.108C264.484 0 264.861 0.856035 265.242 2.56811C265.242 3.90138 264.011 5.32811 261.558 6.84828C260.234 6.84828 259.007 7.41897 257.874 8.56035L257.307 6.27759L253.907 8.27501L252.207 6.84828H251.356L249.94 8.27501H249.089V7.41897C249.089 6.27759 249.842 5.32811 251.356 4.56552H252.773L254.19 5.7069C255.133 5.7069 255.701 5.32811 255.89 4.56552L255.324 1.99742V0.856035L255.607 0.285345H255.606ZM257.307 10.5578C258.06 11.1285 259.857 14.365 262.691 20.2595C264.01 22.9261 264.674 24.9235 264.674 26.2518V26.5371L264.392 26.8224H264.108L260.708 23.6836L260.424 24.825V25.6811L264.108 46.7966C265.995 58.3973 266.942 65.344 266.942 67.6268V67.9121C266.562 75.518 266.092 79.326 265.525 79.326H264.392V77.8992C264.392 72.763 262.027 56.1153 257.307 27.9638C256.741 20.1661 256.077 16.2647 255.324 16.2647C255.508 12.4617 256.174 10.5578 257.307 10.5578H257.307ZM262.691 1.99742C261.176 3.1388 260.424 4.09328 260.424 4.85087C262.31 4.28018 263.257 3.61604 263.257 2.85345L262.691 1.99742ZM281.393 94.1639H281.96V94.7346C281.96 96.0636 279.977 97.4903 276.009 99.0148C266.375 104.722 261.46 107.575 261.274 107.575L260.707 106.72C260.707 105.578 262.026 104.339 264.674 103.01C269.959 99.9635 275.535 97.0173 281.393 94.1639ZM285.077 38.2362H285.644C286.211 38.62 286.778 39.3776 287.344 40.519C287.153 41.2809 286.87 41.6604 286.494 41.6604L285.077 40.519H284.794C283.279 40.519 282.147 44.5138 281.393 52.5035H280.827C280.446 52.1197 279.879 50.8892 279.126 48.794C277.612 46.1325 276.479 44.7992 275.726 44.7992L275.159 45.6552H274.592C272.511 45.6552 271.476 44.7057 271.476 42.8018V41.6604C271.476 41.4735 272.043 41.2816 273.176 41.0897C275.629 41.0897 278.179 43.3725 280.827 47.938C281.578 41.4735 282.995 38.2362 285.078 38.2362H285.077ZM279.126 23.3983C280.069 23.7814 280.543 24.4462 280.543 25.3957V26.8224L279.977 27.3931H279.41L277.993 25.6811L276.859 26.2518V27.6785L278.276 27.9638H279.126L283.66 26.5371C284.036 26.5371 284.226 26.729 284.226 27.1078C284.226 27.6785 282.526 28.9183 279.126 30.8173C278.369 31.771 277.518 32.244 276.575 32.244H276.292L276.859 29.9612L274.875 28.2492V27.6785C274.875 25.7795 276.292 24.3528 279.126 23.3983H279.126ZM310.581 86.1742H310.864L311.43 86.4596V89.0277C311.43 90.3567 310.2 91.0258 307.747 91.0258C306.613 92.7372 305.29 93.5939 303.779 93.5939H303.213C302.079 92.4525 301.322 91.8819 300.946 91.8819C300.189 91.8819 297.447 94.7353 292.728 100.442C288.946 103.674 284.695 106.434 279.976 108.717L279.126 109.288H277.992V108.716C277.992 108.333 281.295 106.051 287.91 101.868C289.796 100.344 293.763 96.5401 299.812 90.4544C300.379 89.8837 301.131 89.5991 302.079 89.5991H302.646L304.913 91.0258C306.232 90.2632 306.896 88.93 306.896 87.0303H307.463L308.597 88.7416H310.014V88.4563C310.014 86.9297 310.198 86.1735 310.58 86.1735L310.581 86.1742ZM291.312 50.2207V50.7914L289.611 55.9269V57.3537C289.611 58.3039 289.987 58.9687 290.746 59.3518H291.312L293.012 57.3537H293.295L293.862 57.9251C293.105 61.1573 291.971 62.7759 290.461 62.7759C288.947 61.8222 288.194 60.5866 288.194 59.0664V57.9251C288.194 55.4504 289.229 52.8823 291.312 50.2207ZM308.031 24.5397H308.597C309.165 24.7316 309.634 25.3023 310.014 26.2518V27.3931L309.448 27.9638H309.164L307.747 26.2518C305.666 27.7762 304.63 29.8671 304.63 32.5293L303.213 37.9509H302.93C301.23 33.0066 300.282 30.5319 300.096 30.5319H299.246L298.679 31.1026H298.395C296.128 30.3443 294.995 29.2971 294.995 27.9638V26.8224C295.561 26.4436 296.128 26.2518 296.694 26.2518C299.528 26.2518 301.605 28.6322 302.928 33.3854H303.212C303.779 27.4916 305.38 24.5397 308.029 24.5397H308.031ZM306.33 42.8018C308.783 42.9937 310.014 43.4709 310.014 44.2285V44.5138C310.014 46.2259 308.69 48.5087 306.046 51.3621C302.832 53.6449 300.379 54.7863 298.679 54.7863V54.2156C299.246 53.2618 301.039 51.6475 304.063 49.3647V49.0794L303.213 48.794C299.246 49.1778 297.262 49.4632 297.262 49.6501H296.696L296.129 49.3647V48.794C297.262 45.5618 298.489 43.9432 299.813 43.9432L306.33 42.8018ZM300.38 11.6992C300.38 13.0324 300.756 13.6966 301.513 13.6966C303.4 14.4592 304.347 15.4086 304.347 16.55C304.347 18.0745 303.116 19.4035 300.664 20.5448H299.53C298.397 20.5448 297.639 19.7865 297.263 18.2621C298.581 14.0804 299.622 11.891 300.38 11.6992H300.38ZM299.529 15.4086L298.963 18.5474V18.8328H300.38C301.133 18.8328 301.983 18.2621 302.93 17.1207V16.55L299.529 15.4086ZM327.867 93.0225L328.15 93.8793C328.15 95.0206 323.333 97.3969 313.698 101.013C310.298 102.912 308.314 103.866 307.748 103.866L307.465 103.581V102.44C308.031 101.298 313.034 98.917 322.483 95.306C325.126 93.7794 326.918 93.0232 327.868 93.0232L327.867 93.0225ZM321.916 80.4673C325.503 81.6087 327.3 82.9377 327.3 84.4622C327.3 85.6043 326.543 87.3156 325.033 89.5991C322.009 88.2658 320.026 86.7456 319.083 85.0336C320.592 81.9875 321.534 80.468 321.917 80.468L321.916 80.4673Z" fill="#31524C"/>
</svg>
