<svg width="118" height="118" viewBox="0 0 118 118" fill="none" xmlns="http://www.w3.org/2000/svg">
<path d="M91.0789 89.2896C83.4089 97.8517 72.4453 102.761 61.0215 102.761C52.5303 102.761 44.4001 100.129 37.4971 95.1465L37.4519 95.11C34.0501 91.8491 32.4529 86.8121 33.1657 81.6384C33.5267 79.0334 34.5012 76.6196 35.5299 74.0692C35.8097 73.386 36.0894 72.6756 36.3601 71.9833C38.0746 67.4928 38.616 63.904 38.0114 61.0348L37.7678 59.8962L36.9647 60.7342C35.9901 61.7544 34.9344 62.6288 33.9147 63.4759C32.868 64.3412 31.8934 65.161 31.0001 66.1083C28.9608 68.2761 27.6704 70.5806 27.1561 72.9488C26.5966 75.5266 26.9214 78.4504 28.1126 81.4107C29.051 83.7334 30.3684 85.8193 32.0288 87.6137L32.119 87.7047L32.1461 87.8323C32.2905 88.5336 32.489 89.2259 32.7146 89.8908L33.3913 91.8583L31.9476 90.3644C29.9082 88.2513 28.0945 85.9103 26.5515 83.4055L26.2717 82.9501L26.2988 82.9409C25.6762 81.8661 24.5663 79.7074 24.5122 79.5981L24.4761 79.5343L24.467 79.4615C22.8518 69.4056 25.225 64.1408 26.6417 60.9984L26.7049 60.8617C26.9214 60.379 27.2282 59.6867 27.5802 58.8761C30.2421 52.7824 33.2109 46.1514 34.8622 44.5938C35.4397 44.0473 36.5406 43.3824 37.9392 42.5261C41.7472 40.2126 47.4951 36.7058 49.345 31.8145C50.3015 29.2823 50.8339 26.1671 50.9241 22.551L50.9331 22.1958L51.276 22.1138C54.4433 21.3305 57.7188 20.9388 61.0124 20.9388C72.4453 20.9388 83.3999 25.8483 91.0699 34.4104C91.2955 34.6654 91.6835 34.6837 91.9362 34.4559C92.1888 34.2282 92.2069 33.8366 91.9813 33.5815C84.0766 24.7644 72.7882 19.7 61.0124 19.7C57.791 19.7 54.5877 20.0644 51.4836 20.7931L50.9422 20.9206L50.9241 20.3558C50.87 18.1516 50.6714 16.2479 50.5 15C49.5615 16.9675 47.7388 19.9369 43.0826 23.726L43.0375 23.7625L42.9924 23.7898C37.5241 26.4222 32.7597 30.184 28.8435 34.9751L28.2389 35.7129L28.0404 34.7747C27.9231 34.2191 27.7877 33.6453 27.6343 33.0897C26.2717 28.1164 21.3449 22.7423 19.089 20.4834C19.3868 22.8425 18.9717 26.6772 17.8618 31.7507C16.391 38.4637 17.4016 43.9562 21.0291 49.0479L21.1644 49.2301L21.1013 49.4487C19.8831 53.4565 19.2604 57.6282 19.2604 61.8455C19.2604 67.429 20.3342 72.8577 22.4367 77.9768L23.0233 79.3886L21.769 78.5324C20.623 77.7491 19.7928 76.4192 19.3236 74.5702C17.6452 68.012 15.1818 62.9112 11.9875 59.4135C8.91043 56.0433 5.00323 54.1669 3 53.3654C3.8031 54.9503 3.9204 56.9359 4.05576 59.3224C4.2272 62.2918 4.43475 65.9808 6.14922 70.1798C8.48632 75.8909 14.7757 77.6215 18.5386 78.6508C19.6755 78.9605 20.5689 79.2064 21.1734 79.4979C22.4006 80.0808 23.4654 80.9188 24.3407 81.9846L24.3678 82.021L24.3858 82.0574C27.3636 87.5499 31.6047 92.3866 36.6488 96.0573L36.73 96.112C43.8496 101.267 52.2506 104 61.0215 104C72.7972 104 84.0857 98.9447 91.9903 90.1185C92.2159 89.8635 92.1978 89.4718 91.9452 89.2441C91.6925 89.0164 91.3045 89.0437 91.0789 89.2896ZM31.9476 81.4562C31.8303 82.276 31.7761 83.1049 31.7671 83.9156L31.7581 85.4458L30.9279 84.1615C30.2782 83.1504 29.7097 82.0574 29.2585 80.9188C28.4915 79.0243 27.7245 76.1368 28.3652 73.1856C28.8344 71.036 30.0255 68.9319 31.9024 66.9281C32.7326 66.0354 33.6891 65.243 34.6997 64.405C35.187 64.0042 35.7284 63.5488 36.2608 63.0751L37.0188 62.4011V63.4212C37.0188 65.6711 36.4052 68.3854 35.2141 71.5097C34.9524 72.2019 34.6727 72.8942 34.402 73.5682C33.3733 76.1004 32.3266 78.7055 31.9476 81.4562ZM28.4735 37.6439L28.4555 37.4344L28.5998 37.2887C28.6179 37.2705 28.6359 37.2523 28.6449 37.2341C30.6392 34.5652 32.9402 32.1515 35.4758 30.0565L37.2173 28.6173L36.1616 30.6303C34.2666 34.2556 34.1493 38.236 34.0771 40.8684C34.041 41.9796 34.023 42.8541 33.8696 43.4279C33.5267 44.7669 32.3536 47.0349 31.1264 49.4305C30.3414 50.9607 29.5293 52.5365 28.8796 53.9756C27.905 56.1162 26.8763 57.8195 26.2627 58.8305C26.0371 59.204 25.8567 59.5046 25.7574 59.6958L25.6942 59.9235L25.4235 59.9873L25.1528 60.042L24.9724 59.8234C24.8641 59.6958 24.828 59.6503 24.828 58.4206C24.828 57.947 24.837 56.9724 24.9092 55.8065C25.0265 53.9483 25.3062 51.3797 26.0191 49.7037L26.0552 49.6217C27.3275 46.6159 28.9066 42.8632 28.4735 37.6439ZM19.0619 32.0148C19.6846 29.1912 20.0906 26.7319 20.2801 24.7098L20.3794 23.6349L21.0832 24.4547C23.9437 27.8158 25.7574 30.8307 26.4703 33.4176C28.4825 40.7226 26.5154 45.3862 24.9363 49.139L24.9002 49.221C24.7377 49.6035 24.5934 50.0316 24.458 50.5144L24.1512 51.6074L23.6188 50.6055C23.3752 50.1409 23.0955 49.7128 22.7977 49.3303C20.0455 45.8508 17.1489 40.7409 19.0619 32.0148ZM23.4835 66.7459C23.1586 69.5695 23.0594 71.9196 23.1676 73.7139L23.4113 77.5942L22.2743 73.8779C21.0922 69.9885 20.4876 65.9443 20.4876 61.8455C20.4876 58.3478 20.9298 54.8683 21.7961 51.5163L22.1029 50.314L22.6443 51.4252C24.088 54.4037 23.8264 63.7127 23.4835 66.7459Z" fill="#608161"/>
<path d="M60.94 100.42C52.909 100.42 45.23 97.9335 38.724 93.2153C38.6428 93.1606 38.6247 93.0422 38.6789 92.9603C38.733 92.8783 38.8503 92.8601 38.9315 92.9147C45.3744 97.5874 52.9812 100.047 60.94 100.047C71.7322 100.047 82.0371 95.3649 89.2108 87.2036C89.274 87.1308 89.3913 87.1217 89.4635 87.1854C89.5356 87.2492 89.5447 87.3676 89.4815 87.4404C85.9352 91.4755 81.6852 94.6636 76.8485 96.9043C71.8405 99.2452 66.4895 100.42 60.94 100.42Z" fill="#608161"/>
<path d="M88.9397 36.2684C88.8946 36.2684 88.8404 36.2502 88.8043 36.2137C81.6667 28.3348 71.5062 23.8261 60.9396 23.8261C58.9183 23.8261 56.888 23.99 54.9029 24.3088C54.8036 24.327 54.7134 24.2542 54.6953 24.154C54.6773 24.0538 54.7494 23.9627 54.8487 23.9445C56.8519 23.6166 58.9003 23.4526 60.9396 23.4526C66.3808 23.4526 71.6415 24.5912 76.5684 26.8228C81.3238 28.9815 85.5378 32.0602 89.0751 35.9587C89.1382 36.0316 89.1382 36.15 89.066 36.2137C89.0299 36.2502 88.9848 36.2684 88.9397 36.2684Z" fill="#608161"/>
<path d="M95.8791 63.6126C97.0552 63.6126 98.0087 62.6502 98.0087 61.463C98.0087 60.2758 97.0552 59.3134 95.8791 59.3134C94.703 59.3134 93.7495 60.2758 93.7495 61.463C93.7495 62.6502 94.703 63.6126 95.8791 63.6126Z" fill="#608161"/>
<path d="M72.5449 48.9746L73.3276 49.5971L51.2874 77.3095L50.5048 76.687L72.5449 48.9746Z" fill="#608161"/>
<path d="M51.5184 47.4004H57.3684V47.7424H56.3784V55.5184C56.3784 57.1384 56.0124 58.3204 55.2804 59.0644C54.5484 59.7964 53.4504 60.1624 51.9864 60.1624C51.0144 60.1624 50.2404 59.9764 49.6644 59.6044C49.1004 59.2324 48.8184 58.7104 48.8184 58.0384C48.8184 57.5224 48.9624 57.1204 49.2504 56.8324C49.5384 56.5324 49.9284 56.3824 50.4204 56.3824C50.9244 56.3824 51.2964 56.5084 51.5364 56.7604C51.7884 57.0124 51.9144 57.3184 51.9144 57.6784C51.9144 58.0264 51.8484 58.3804 51.7164 58.7404H51.0144C50.9064 58.9204 50.8524 59.0944 50.8524 59.2624C50.8524 59.4184 50.9304 59.5564 51.0864 59.6764C51.2544 59.7844 51.4704 59.8384 51.7344 59.8384C52.2144 59.8384 52.5204 59.6524 52.6524 59.2804C52.7964 58.8964 52.8684 58.0744 52.8684 56.8144V47.7424H51.5184V47.4004Z" fill="#608161"/>
<path d="M75.8042 68.4004L75.9842 72.9184H75.6422C75.1142 71.3224 74.6462 70.2364 74.2382 69.6604C73.8302 69.0724 73.2422 68.7784 72.4742 68.7784H72.2582V80.6224H73.7882V81.0004H67.2182V80.6224H68.7482V68.7784H68.5142C67.7462 68.7784 67.1522 69.0844 66.7322 69.6964C66.3122 70.2964 65.8502 71.3704 65.3462 72.9184H65.0042L65.1842 68.4004H75.8042Z" fill="#608161"/>
</svg>
