<svg width="207" height="182" viewBox="0 0 207 182" fill="none" xmlns="http://www.w3.org/2000/svg">
<path d="M180.518 151.918C164.798 169.427 142.328 179.467 118.915 179.467C101.513 179.467 84.8497 174.084 70.7019 163.895L70.6094 163.82C63.6372 157.152 60.3638 146.852 61.8248 136.272C62.5646 130.945 64.5619 126.009 66.6702 120.793C67.2435 119.396 67.8168 117.943 68.3717 116.528C71.8855 107.345 72.9951 100.006 71.756 94.1386L71.2567 91.8102L69.6107 93.5239C67.6134 95.6101 65.4496 97.3982 63.3598 99.1305C61.2146 100.9 59.2172 102.576 57.3863 104.514C53.2067 108.947 50.5621 113.659 49.508 118.502C48.3613 123.773 49.0271 129.753 51.4683 135.806C53.3917 140.556 56.0918 144.821 59.4946 148.491L59.6796 148.677L59.735 148.938C60.0309 150.372 60.4378 151.788 60.9002 153.147L62.2872 157.171L59.3282 154.116C55.1486 149.795 51.4313 145.008 48.2689 139.885L47.6956 138.954L47.751 138.935C46.475 136.737 44.2002 132.323 44.0893 132.099L44.0153 131.969L43.9968 131.82C40.6864 111.256 45.5503 100.49 48.4538 94.0641L48.5833 93.7847C49.0271 92.7975 49.6559 91.3819 50.3772 89.7241C55.8328 77.2629 61.9173 63.7028 65.3017 60.5177C66.4853 59.4001 68.7415 58.0403 71.6081 56.2894C79.4125 51.5583 91.193 44.3871 94.9843 34.3846C96.9446 29.2064 98.0357 22.8361 98.2207 15.4414L98.2392 14.715L98.9419 14.5473C105.433 12.9454 112.147 12.1445 118.897 12.1445C142.328 12.1445 164.78 22.1842 180.5 39.6932C180.962 40.2147 181.757 40.252 182.275 39.7863C182.793 39.3206 182.83 38.5197 182.368 37.9982C166.167 19.9677 143.031 9.6113 118.897 9.6113C112.294 9.6113 105.729 10.3564 99.3673 11.8465L98.2577 12.1073L98.2207 10.9524C98.1097 6.44479 97.7029 2.55184 97.3515 0C95.4281 4.02333 91.6924 10.0956 82.1496 17.8442L82.0571 17.9187L81.9646 17.9746C70.7574 23.3577 60.9926 31.0505 52.9663 40.848L51.7272 42.3568L51.3204 40.4382C51.0799 39.302 50.8025 38.1285 50.4881 36.9923C47.6956 26.8222 37.5979 15.8326 32.9745 11.2132C33.5848 16.0375 32.7341 23.8792 30.4593 34.2542C27.4448 47.982 29.5161 59.2138 36.9507 69.626L37.2281 69.9986L37.0986 70.4456C34.6019 78.6413 33.3259 87.1722 33.3259 95.7963C33.3259 107.214 35.5266 118.316 39.8357 128.784L41.0378 131.671L38.4671 129.92C36.1184 128.318 34.417 125.599 33.4553 121.818C30.0155 108.407 24.9667 97.9756 18.4198 90.823C12.1135 83.9312 4.10563 80.0942 0 78.455C1.64595 81.696 1.88637 85.7566 2.16378 90.6368C2.51516 96.709 2.94052 104.253 6.45434 112.84C11.2442 124.518 24.1344 128.058 31.8464 130.162C34.1766 130.796 36.0075 131.299 37.2466 131.895C39.7617 133.087 41.944 134.8 43.7379 136.98L43.7934 137.054L43.8304 137.129C49.9333 148.36 58.6254 158.251 68.9635 165.758L69.019 165.795L69.1299 165.869C83.7215 176.412 100.939 182 118.915 182C143.05 182 166.185 171.662 182.386 153.613C182.848 153.092 182.811 152.291 182.294 151.825C181.776 151.359 180.981 151.415 180.518 151.918ZM59.3282 135.899C59.0878 137.576 58.9768 139.271 58.9583 140.928L58.9398 144.058L57.2384 141.431C55.9068 139.364 54.7417 137.129 53.817 134.8C52.245 130.926 50.6731 125.021 51.9861 118.986C52.9478 114.591 55.389 110.288 59.2357 106.19C60.9371 104.365 62.8975 102.744 64.9688 101.03C65.9675 100.211 67.0771 99.2795 68.1682 98.3109L69.7217 96.9326V99.0187C69.7217 103.619 68.4641 109.17 66.0229 115.559C65.4866 116.975 64.9133 118.39 64.3585 119.769C62.2502 124.947 60.1049 130.274 59.3282 135.899ZM52.2081 46.3056L52.1711 45.8772L52.467 45.5792C52.504 45.5419 52.541 45.5047 52.5594 45.4674C56.6466 40.0098 61.3625 35.0738 66.5593 30.7897L70.1286 27.8467L67.9648 31.9632C64.0811 39.3765 63.8407 47.5163 63.6927 52.8994C63.6187 55.1718 63.5818 56.96 63.2674 58.1335C62.5646 60.8716 60.1604 65.5096 57.6452 70.4084C56.0363 73.5376 54.3718 76.76 53.0403 79.703C51.0429 84.0802 48.9347 87.5634 47.6771 89.631C47.2147 90.3946 46.8448 91.0093 46.6414 91.4005L46.512 91.8661L45.9571 91.9965L45.4023 92.1083L45.0325 91.6612C44.8105 91.4005 44.7366 91.3073 44.7366 88.7928C44.7366 87.8242 44.7551 85.8311 44.903 83.4469C45.1434 79.6471 45.7167 74.3944 47.1777 70.9671L47.2517 70.7995C49.8593 64.6527 53.0958 56.9786 52.2081 46.3056ZM32.919 34.7944C34.1951 29.0202 35.0273 23.991 35.4157 19.8559L35.6191 17.658L37.0616 19.3344C42.9242 26.2076 46.6414 32.3729 48.1024 37.6629C52.2266 52.6014 48.1949 62.1382 44.9585 69.8123L44.8845 69.9799C44.5516 70.7623 44.2557 71.6377 43.9783 72.6249L43.3495 74.8601L42.2584 72.8112C41.759 71.8612 41.1857 70.9858 40.5754 70.2035C34.9348 63.0881 28.9983 52.6386 32.919 34.7944ZM41.981 105.817C41.3152 111.592 41.1118 116.397 41.3337 120.067L41.833 128.002L39.5028 120.402C37.0801 112.448 35.841 104.178 35.841 95.7963C35.841 88.6437 36.7472 81.5284 38.5226 74.6738L39.1514 72.2151L40.261 74.4876C43.2201 80.5784 42.6837 99.6148 41.981 105.817Z" fill="#608161"/>
<path d="M118.748 174.679C102.289 174.679 86.5505 169.594 73.2164 159.945C73.05 159.834 73.013 159.591 73.124 159.424C73.2349 159.256 73.4754 159.219 73.6418 159.331C86.8464 168.886 102.437 173.915 118.748 173.915C140.867 173.915 161.987 164.341 176.689 147.652C176.819 147.503 177.059 147.484 177.207 147.615C177.355 147.745 177.374 147.987 177.244 148.136C169.976 156.388 161.266 162.907 151.353 167.489C141.089 172.276 130.122 174.679 118.748 174.679Z" fill="#608161"/>
<path d="M176.135 43.4927C176.043 43.4927 175.932 43.4555 175.858 43.3809C161.229 27.269 140.405 18.0488 118.749 18.0488C114.606 18.0488 110.445 18.3841 106.376 19.0361C106.173 19.0733 105.988 18.9243 105.951 18.7194C105.914 18.5145 106.062 18.3282 106.265 18.291C110.371 17.6204 114.569 17.2852 118.749 17.2852C129.9 17.2852 140.682 19.6135 150.78 24.177C160.526 28.5915 169.163 34.8872 176.412 42.8594C176.542 43.0084 176.542 43.2506 176.394 43.3809C176.32 43.4555 176.228 43.4927 176.135 43.4927Z" fill="#608161"/>
<path d="M197.019 100.815C199.429 100.815 201.383 98.8471 201.383 96.4193C201.383 93.9915 199.429 92.0234 197.019 92.0234C194.608 92.0234 192.654 93.9915 192.654 96.4193C192.654 98.8471 194.608 100.815 197.019 100.815Z" fill="#608161"/>
<path d="M94.0774 62.983H104.735V63.6047H102.931V77.7394C102.931 80.6841 102.264 82.8326 100.931 84.185C99.5974 85.5156 97.5971 86.1809 94.93 86.1809C93.1592 86.1809 91.7491 85.8428 90.6998 85.1666C89.6723 84.4904 89.1586 83.5415 89.1586 82.32C89.1586 81.3821 89.4209 80.6514 89.9456 80.1279C90.4702 79.5825 91.1807 79.3099 92.0771 79.3099C92.9952 79.3099 93.6729 79.5389 94.1102 79.997C94.5693 80.455 94.7988 81.0113 94.7988 81.6657C94.7988 82.2982 94.6786 82.9417 94.4381 83.5961H93.1592C92.9624 83.9233 92.8641 84.2396 92.8641 84.5449C92.8641 84.8285 93.0062 85.0793 93.2904 85.2975C93.5964 85.4938 93.9899 85.5919 94.4709 85.5919C95.3453 85.5919 95.9028 85.2538 96.1433 84.5777C96.4056 83.8796 96.5368 82.3855 96.5368 80.0951V63.6047H94.0774V62.983Z" fill="#608161"/>
<path d="M110.395 68.0545C109.236 68.0545 108.405 67.76 107.903 67.1711C107.422 66.5821 107.181 65.8514 107.181 64.9789C107.181 64.1064 107.443 63.3866 107.968 62.8194C108.515 62.2523 109.334 61.9688 110.428 61.9688C111.521 61.9688 112.351 62.2305 112.92 62.754C113.488 63.2557 113.772 63.9864 113.772 64.9462C113.772 65.8841 113.499 66.6367 112.953 67.2038C112.406 67.7709 111.553 68.0545 110.395 68.0545ZM105.443 70.3121H113.477V85.2975H115.314V85.8864H105.574V85.2975H107.378V70.9011H105.443V70.3121Z" fill="#608161"/>
<path d="M115.982 70.3121H123.885V73.3223C124.606 71.0974 126.191 69.9849 128.64 69.9849C131.11 69.9849 132.608 71.1628 133.132 73.5186C133.897 71.1628 135.504 69.9849 137.953 69.9849C141.166 69.9849 142.773 71.8063 142.773 75.449V85.2975H144.609V85.8864H135.526V85.2975H136.674V74.6638C136.674 73.006 136.532 72.0353 136.247 71.7518C136.116 71.6209 135.941 71.5554 135.723 71.5554C135.089 71.5554 134.531 71.9808 134.05 72.8315C133.569 73.6822 133.329 74.7619 133.329 76.0707V85.2975H134.509V85.8864H126.082V85.2975H127.23V74.6638C127.23 73.006 127.088 72.0353 126.803 71.7518C126.672 71.6209 126.497 71.5554 126.279 71.5554C125.667 71.5554 125.109 72.0244 124.606 72.9624C124.125 73.8785 123.885 74.98 123.885 76.267V85.2975H125.065V85.8864H115.982V85.2975H117.786V70.9011H115.982V70.3121Z" fill="#608161"/>
<path d="M145.091 70.3121H152.994V73.3223C153.716 71.0974 155.301 69.9849 157.749 69.9849C160.219 69.9849 161.717 71.1628 162.242 73.5186C163.007 71.1628 164.614 69.9849 167.062 69.9849C170.276 69.9849 171.882 71.8063 171.882 75.449V85.2975H173.719V85.8864H164.635V85.2975H165.783V74.6638C165.783 73.006 165.641 72.0353 165.357 71.7518C165.226 71.6209 165.051 71.5554 164.832 71.5554C164.198 71.5554 163.641 71.9808 163.16 72.8315C162.679 73.6822 162.438 74.7619 162.438 76.0707V85.2975H163.619V85.8864H155.191V85.2975H156.339V74.6638C156.339 73.006 156.197 72.0353 155.913 71.7518C155.782 71.6209 155.607 71.5554 155.388 71.5554C154.776 71.5554 154.218 72.0244 153.716 72.9624C153.235 73.8785 152.994 74.98 152.994 76.267V85.2975H154.175V85.8864H145.091V85.2975H146.895V70.9011H145.091V70.3121Z" fill="#608161"/>
<path d="M179.021 68.0545C177.863 68.0545 177.032 67.76 176.529 67.1711C176.048 66.5821 175.808 65.8514 175.808 64.9789C175.808 64.1064 176.07 63.3866 176.595 62.8194C177.141 62.2523 177.961 61.9688 179.054 61.9688C180.147 61.9688 180.978 62.2305 181.546 62.754C182.115 63.2557 182.399 63.9864 182.399 64.9462C182.399 65.8841 182.125 66.6367 181.579 67.2038C181.032 67.7709 180.18 68.0545 179.021 68.0545ZM174.07 70.3121H182.104V85.2975H183.94V85.8864H174.201V85.2975H176.004V70.9011H174.07V70.3121Z" fill="#608161"/>
<path d="M104.951 107.972L105.279 116.184H104.656C103.694 113.283 102.841 111.309 102.098 110.262C101.354 109.193 100.283 108.659 98.8841 108.659H98.4906V130.188H101.278V130.875H89.3088V130.188H92.0961V108.659H91.6698C90.2707 108.659 89.1886 109.215 88.4234 110.328C87.6583 111.418 86.8166 113.37 85.8984 116.184H85.2754L85.6033 107.972H104.951Z" fill="#608161"/>
<path d="M106.409 131.202V125.346H106.802C107.371 127.243 108.136 128.574 109.098 129.337C110.059 130.101 111.262 130.483 112.705 130.483C114.935 130.483 116.049 129.774 116.049 128.356C116.049 127.745 115.776 127.287 115.23 126.982C114.377 126.502 113.284 126.131 111.95 125.869C110.464 125.477 109.218 124.953 108.212 124.299C107.01 123.513 106.409 122.27 106.409 120.569C106.409 118.867 106.933 117.515 107.983 116.512C109.032 115.486 110.431 114.974 112.18 114.974C113.251 114.974 114.355 115.225 115.492 115.726C115.907 115.901 116.224 115.988 116.443 115.988C116.662 115.988 116.847 115.912 117 115.759C117.153 115.606 117.339 115.323 117.558 114.908H117.919V119.914H117.525C116.41 117.079 114.683 115.661 112.344 115.661C111.316 115.661 110.551 115.846 110.049 116.217C109.546 116.566 109.294 117.013 109.294 117.559C109.294 117.886 109.371 118.147 109.524 118.344C109.677 118.518 109.797 118.649 109.885 118.736C109.972 118.824 110.114 118.922 110.311 119.031C110.508 119.118 110.672 119.194 110.803 119.26C110.934 119.304 111.131 119.369 111.393 119.456C111.677 119.543 111.885 119.598 112.016 119.62C113.503 119.991 114.574 120.318 115.23 120.601C115.886 120.863 116.509 121.19 117.099 121.583C118.301 122.412 118.902 123.753 118.902 125.607C118.902 127.44 118.356 128.836 117.263 129.795C116.17 130.733 114.672 131.202 112.77 131.202C111.415 131.202 110.103 130.886 108.835 130.254C108.573 130.079 108.365 129.992 108.212 129.992C107.731 129.992 107.261 130.395 106.802 131.202H106.409Z" fill="#608161"/>
<path d="M119.873 106.336H127.776V118.311C128.126 117.308 128.661 116.501 129.383 115.89C130.104 115.279 131.197 114.974 132.662 114.974C136.05 114.974 137.745 116.795 137.745 120.438V130.286H139.581V130.875H130.301V130.286H131.645V119.653C131.645 118.344 131.558 117.504 131.383 117.133C131.208 116.741 130.891 116.544 130.432 116.544C129.732 116.544 129.109 117.002 128.563 117.918C128.038 118.835 127.776 119.947 127.776 121.256V130.286H129.186V130.875H119.873V130.286H121.676V106.925H119.873V106.336Z" fill="#608161"/>
<path d="M147.95 123.186H148.901V120.667C148.901 118.595 148.78 117.21 148.54 116.512C148.321 115.792 147.884 115.432 147.228 115.432C146.835 115.432 146.474 115.541 146.146 115.759C145.84 115.955 145.687 116.239 145.687 116.61C145.687 116.959 145.753 117.319 145.884 117.689H146.704C146.879 118.147 146.966 118.704 146.966 119.358C146.966 119.991 146.693 120.547 146.146 121.027C145.6 121.485 144.911 121.714 144.08 121.714C142.2 121.714 141.26 120.809 141.26 118.998C141.26 116.315 143.545 114.974 148.114 114.974C150.715 114.974 152.508 115.421 153.492 116.315C154.497 117.188 155 118.802 155 121.158V127.8C155 128.934 155.317 129.501 155.951 129.501C156.694 129.501 157.132 128.378 157.263 126.131L157.755 126.164C157.667 128.083 157.306 129.403 156.672 130.123C156.038 130.842 155 131.202 153.557 131.202C150.934 131.202 149.425 130.395 149.032 128.781C148.748 129.61 148.321 130.221 147.753 130.613C147.185 131.006 146.354 131.202 145.261 131.202C142.025 131.202 140.408 129.883 140.408 127.243C140.408 125.695 141.02 124.637 142.244 124.07C143.49 123.481 145.392 123.186 147.95 123.186ZM146.638 127.211C146.638 128.345 146.693 129.076 146.802 129.403C146.933 129.73 147.163 129.894 147.491 129.894C147.84 129.894 148.157 129.621 148.442 129.076C148.748 128.509 148.901 127.734 148.901 126.753V123.71H148.671C147.316 123.71 146.638 124.702 146.638 126.687V127.211Z" fill="#608161"/>
</svg>
