<svg width="349" height="44" viewBox="0 0 349 44" fill="none" xmlns="http://www.w3.org/2000/svg">
<path d="M7.23661 17.3135C12.9739 21.0631 20.0523 22.364 26.7582 21.8284C26.9072 21.8284 27.0562 21.7519 27.2053 21.7519C30.2602 22.9762 33.5386 23.8945 37.0406 24.3536C42.9268 25.0424 48.9621 24.8128 54.9229 24.0476C46.6523 29.0216 36.4445 37.0565 43.672 42.0305C48.068 45.0914 54.0288 42.7957 57.5308 39.4287C62.0014 35.2199 65.5034 29.0216 66.5465 22.8232C66.621 22.5171 66.621 22.211 66.5465 21.9049C70.421 21.0631 74.2955 20.2214 78.0955 19.3796C91.4328 16.3952 104.472 12.1865 117.66 8.81944C113.935 12.4926 110.731 19.0735 114.158 23.8945C117.66 28.8685 122.95 26.2667 126.229 22.5936C128.613 19.9153 130.923 16.9309 132.786 13.7934C135.245 9.58467 138.374 7.3655 143.068 6.3707C143.366 6.29417 143.664 6.14113 143.888 5.98808C149.849 6.67679 156.256 8.58987 159.684 13.7935C161.174 15.9361 164.602 13.87 163.186 11.7273C156.405 1.54974 141.951 0.707975 131.072 2.00887C121.907 3.0802 112.892 5.68198 104.025 8.3603L103.95 8.3603C100.225 8.13072 96.574 7.44202 93.2955 5.75851C90.4642 4.22804 87.7818 2.39148 84.8014 1.09059C81.2994 -0.439876 73.8485 -0.899018 71.7622 3.38628C69.2288 8.58986 75.1896 13.1047 79.0642 14.7117C79.2877 14.7882 79.5112 14.8648 79.8093 15.0178C69.0798 17.6196 58.1269 19.9918 47.3229 20.604C40.3935 20.9866 33.4641 20.3744 27.0562 17.4666L27.0562 17.39C24.5974 11.4212 20.3504 6.37068 14.7621 3.15671C10.8876 0.861013 2.98955 -1.97035 0.605228 3.92194C-1.70457 9.35509 3.06406 14.5587 7.23661 17.3135ZM122.503 20.7571C121.535 21.6753 120.268 23.1293 118.852 22.6701C116.394 21.9049 116.468 18.844 117.064 17.0074C118.033 14.0995 120.268 11.4212 122.95 10.0438C123.398 9.81424 123.919 9.58467 124.366 9.43163C123.025 10.7325 121.982 12.1099 120.939 13.7169C119.523 15.9361 123.025 18.0022 124.441 15.7831C125.558 14.023 126.75 12.4926 128.464 11.2682C128.986 10.8856 129.656 10.4264 130.252 9.96729C127.719 13.5639 125.856 17.6196 122.503 20.7571ZM76.0838 6.44721C75.9347 4.15152 76.7543 4.30457 78.8406 4.22804C80.2563 4.15152 81.523 4.30457 82.8641 4.84023C85.5465 5.83503 87.8563 7.51854 90.3151 8.89596C87.1857 8.28377 83.9818 7.28897 81.374 5.91155C79.0641 4.7637 77.0524 8.28377 79.3622 9.50814C81.4485 10.5795 83.6092 11.3447 85.9191 11.9569C84.3543 11.8804 82.9387 11.7273 81.7465 11.4212C79.2877 10.656 76.3073 9.12553 76.0838 6.44721ZM58.2759 32.2355C56.4131 34.9139 51.719 41.1122 47.77 39.1992C43.2994 37.0565 51.1975 31.4703 53.2837 29.9398C54.1779 29.2511 55.072 28.6389 56.0406 28.0268C54.7739 29.7103 53.5073 31.4703 51.719 32.6182C49.4837 33.9956 51.57 37.5922 53.7308 36.2147C55.8916 34.8373 57.4563 32.8477 59.021 30.7816C59.3935 30.3225 59.7661 29.7868 60.1386 29.3277C59.5426 30.2459 58.9465 31.2407 58.2759 32.2355ZM16.1778 9.049C17.7425 10.3499 19.0837 11.8804 20.2758 13.4873C16.6994 11.0386 13.4209 8.20724 10.1425 5.37588C12.6013 6.52373 15.2092 8.28377 16.1778 9.049ZM6.11896 4.4576C5.29935 5.14631 5.00133 6.37068 6.04447 7.28896C10.217 10.9621 14.4641 14.5587 19.0092 17.4666C17.4445 17.237 15.8798 16.7778 14.3896 16.2422C10.9621 15.0178 3.80916 11.6508 4.03269 6.90635C4.1072 5.22284 4.92681 4.53413 6.11896 4.4576Z" fill="#C08329"/>
<path d="M188.523 13.7934C191.95 8.66638 198.358 6.75329 204.319 5.98806C204.542 6.14111 204.766 6.29416 205.138 6.37068C209.534 7.28896 212.813 9.27856 215.123 13.3343C216.911 16.4717 219.072 19.4562 221.456 22.1345C224.809 25.9606 230.248 29.2511 233.974 23.971C237.327 19.2266 234.421 12.9517 230.844 9.20204C230.695 9.049 230.546 8.97247 230.397 8.81942C243.66 12.1864 256.699 16.3952 270.036 19.3796C273.836 20.2214 277.711 21.1397 281.585 21.9049C281.511 22.211 281.511 22.5171 281.585 22.8232C282.629 28.945 286.131 35.1434 290.601 39.4287C294.178 42.7957 300.064 45.0914 304.46 42.0305C311.687 36.98 301.48 29.0216 293.209 24.0476C298.946 24.8128 304.758 25.1189 310.421 24.5067C314.221 24.1241 317.648 23.1293 320.927 21.8284C321.076 21.9049 321.225 21.9049 321.448 21.9049C327.931 22.4406 334.786 21.1397 340.448 17.6961C344.844 14.9413 349.986 9.58467 347.676 3.84542C345.366 -1.8173 337.915 0.707973 334.04 2.85062C328.229 5.98808 323.833 11.1917 321.225 17.39L321.225 17.4666C314.891 20.3744 307.887 20.9866 300.958 20.604C290.08 19.9918 279.127 17.6961 268.472 15.0178C268.695 14.9413 268.919 14.8648 269.217 14.7117C273.091 13.0282 279.052 8.51334 276.519 3.38628C274.433 -0.899024 266.982 -0.439884 263.48 1.09058C260.499 2.39148 257.817 4.30456 254.985 5.7585C251.632 7.51853 247.982 8.13072 244.331 8.36029L244.256 8.36029C235.315 5.68197 226.374 3.08018 217.209 2.00886C206.33 0.707961 191.876 1.54971 185.095 11.7273C183.605 13.9465 187.107 16.0126 188.523 13.7934ZM344.248 6.90636C344.397 11.3447 337.766 14.7882 334.488 16.0126C332.774 16.6248 330.986 17.0839 329.272 17.39C333.817 14.4822 338.064 10.9621 342.237 7.21245C343.28 6.29417 342.982 5.0698 342.162 4.30456C343.28 4.45761 344.174 5.22284 344.248 6.90636ZM331.656 9.50814C332.625 8.66639 335.456 6.67678 338.138 5.45241C334.86 8.28377 331.582 11.1151 328.005 13.5639C329.048 12.0334 330.24 10.656 331.656 9.50814ZM300.511 39.1992C295.37 40.7296 290.75 34.7608 287.993 29.0216C288.44 29.5572 288.813 30.1694 289.26 30.7051C290.899 32.7712 292.389 34.7608 294.625 36.1382C296.86 37.5156 298.872 33.9956 296.636 32.5416C294.848 31.3938 293.582 29.6338 292.315 27.9502C293.06 28.4094 293.805 28.945 294.476 29.4807C296.04 30.6286 305.578 37.6687 300.511 39.1992ZM231.142 17.0074C231.738 18.7674 231.738 20.2214 230.323 21.5988C228.46 23.3588 227.64 22.5936 225.703 20.7571C222.425 17.6196 220.487 13.5639 217.88 9.96727C218.55 10.4264 219.146 10.9621 219.742 11.3447C221.456 12.5691 222.648 14.0995 223.766 15.8596C225.181 18.0787 228.683 16.0126 227.268 13.7934C226.225 12.1864 225.181 10.809 223.915 9.50813C224.138 9.58466 224.362 9.66118 224.511 9.73771C227.491 10.9621 230.099 13.7934 231.142 17.0074ZM265.342 4.7637C266.907 4.22804 270.856 3.38628 272.272 4.7637C275.252 7.51854 267.876 11.0386 266.46 11.3447C265.342 11.6508 263.852 11.8038 262.362 11.8804C264.597 11.2682 266.833 10.5029 268.844 9.43161C271.154 8.20724 269.142 4.68717 266.833 5.83502C264.15 7.21244 260.946 8.20724 257.891 8.81943C260.35 7.36549 262.66 5.7585 265.342 4.7637Z" fill="#C08329"/>
</svg>
