<svg width="304" height="54" viewBox="0 0 304 54" fill="none" xmlns="http://www.w3.org/2000/svg">
<g clip-path="url(#clip0)">
<path d="M303.379 2.87664C301.315 -0.980503 293.471 -0.261375 289.962 0.915381C287.416 1.76526 285.145 3.59577 283.081 5.23015C280.191 7.45291 277.714 10.8524 274.548 12.6176C274.204 12.8137 273.998 13.0752 273.86 13.3367C265.603 17.3246 256.933 20.3972 248.126 22.9469C249.295 21.9009 250.396 20.7241 251.428 19.5473C254.112 16.6708 260.305 11.3101 256.589 7.06066C252.392 2.22289 245.442 6.34153 241.726 9.3488C238.767 11.7677 237.391 14.3173 235.809 17.5861C234.364 20.5933 232.643 23.7314 232.781 27.1309C227.07 28.5038 221.221 29.419 215.441 29.3536C210.968 29.2883 206.427 28.5691 201.886 27.5885C206.702 26.7386 211.037 25.1696 215.441 22.2931C219.088 19.9396 226.863 15.5595 223.629 10.4602C220.395 5.29553 212.276 7.77979 208.147 10.3294C201.748 14.2519 197.551 19.2205 194.179 25.6272C190.945 24.7774 187.711 23.8621 184.614 23.143C175.394 20.9202 166.242 18.3706 158.536 12.8137C156.609 11.4408 154.751 14.5134 156.678 15.8863C161.907 19.6127 167.825 22.0316 173.949 23.9275C172.986 26.1503 172.16 28.5038 172.642 30.9226C173.192 33.603 174.637 36.5449 176.013 38.9638C178.559 43.4093 182.825 47.7241 188.605 47.4626C189.225 47.4626 189.913 47.1357 190.188 46.6127C190.532 46.0243 191.358 45.6975 191.771 45.1745C192.39 44.4553 192.665 43.5401 192.803 42.6248C193.147 40.0752 191.633 37.5256 190.601 35.2374C189.431 32.7532 188.055 30.3343 186.128 28.2423C185.647 27.7193 185.165 27.327 184.683 26.8694C193.835 29.1575 203.399 32.2302 212.895 32.8185C212.964 33.0147 213.033 33.2108 213.102 33.4069C217.161 39.7483 222.597 46.4166 229.203 50.4699C232.299 52.4311 235.465 54.327 239.318 54.0001C242.139 53.804 245.373 52.4965 246.543 49.8815C249.364 43.5401 243.378 38.5062 238.355 35.695C234.776 33.7338 230.923 33.1454 227.001 32.1648C226.863 32.1648 226.795 32.0994 226.657 32.0994C233.331 30.988 239.868 29.1575 246.199 27.327C246.681 27.327 247.093 27.327 247.575 27.327C247.713 27.6539 247.919 27.9154 248.263 28.1769C251.772 30.5304 255.144 33.1454 259.066 34.8452C262.575 36.3488 266.36 37.0679 270.145 37.9178C275.649 39.1599 284.801 40.3367 286.384 33.08C287.829 26.4771 278.883 24.7774 273.998 23.5352C270.007 22.5546 266.085 22.2931 262.163 22.2931C266.498 20.7241 270.695 18.959 274.824 16.9977C274.961 16.9977 275.099 17.0631 275.236 17.0631C282.117 17.1285 289.686 17.1938 296.017 14.2519C299.87 12.3561 305.994 7.71441 303.379 2.87664ZM284.732 8.56429C288.448 5.55703 291.613 3.46502 296.705 3.79189C297.393 3.85727 298.081 3.92265 298.769 4.0534C298.769 4.18415 298.838 4.38027 298.838 4.51102C296.017 6.73378 292.232 7.12603 288.861 8.43354C286.728 9.28342 284.663 10.0025 282.53 10.5909C283.287 9.8718 283.975 9.15267 284.732 8.56429ZM253.217 11.8984C251.497 14.9057 248.401 17.7168 245.855 20.1357C245.236 20.7241 244.616 21.2471 243.997 21.7701C244.616 21.051 245.167 20.2665 245.786 19.482C248.126 16.2786 251.153 12.5522 251.979 8.62967C252.048 8.62967 252.048 8.62967 252.116 8.69504C253.837 9.3488 253.974 10.5909 253.217 11.8984ZM241.795 14.2519C243.171 12.6829 245.029 11.1793 246.818 10.0679C247.162 9.8718 247.575 9.6103 247.988 9.41417C246.956 12.3561 244.272 15.4941 242.552 17.7168C240.832 20.0703 239.249 21.9662 237.116 23.6006C237.529 22.4892 238.011 21.4432 238.492 20.3972C239.524 18.3052 240.281 16.0171 241.795 14.2519ZM215.097 18.2398C213.377 19.4166 211.519 20.5933 209.661 21.574C207.322 22.8161 204.844 23.5352 202.298 23.9929C202.711 23.6006 203.193 23.2737 203.675 22.8815C205.395 21.7047 207.115 20.4626 208.904 19.4166C210.624 18.436 212.413 17.9783 214.271 17.2592C215.785 16.6708 217.092 16.0171 218.606 15.5594C218.4 15.7556 218.056 15.9517 217.712 16.2786C216.955 16.9323 215.992 17.5861 215.097 18.2398ZM205.051 16.9977C206.771 15.5595 208.56 14.1866 210.556 13.0752C211.725 12.4214 212.964 11.7677 214.34 11.3754C215.028 11.2447 215.716 11.1139 216.473 10.9832C217.849 10.5909 218.606 10.9178 218.882 11.8331C216.68 12.2907 214.891 13.2713 212.826 14.0558C210.418 14.9711 208.354 15.6248 206.221 16.9977C205.051 17.7168 203.881 18.5013 202.711 19.2858C203.399 18.5013 204.156 17.7168 205.051 16.9977ZM179.11 37.1333C177.665 34.649 176.564 32.1648 176.426 29.6151C178.697 34.5183 182.688 39.0292 185.715 43.4747C182.757 42.4941 180.623 39.7483 179.11 37.1333ZM185.44 33.4723C186.472 35.172 187.367 37.0026 188.192 38.8331C188.605 39.7483 188.674 40.4674 188.605 41.1212C187.229 39.0292 185.853 37.0679 184.408 35.0413C182.894 32.7532 180.83 30.2689 179.591 27.6539C181.793 29.2229 183.926 30.988 185.44 33.4723ZM226.657 44.1938C224.661 42.3633 222.666 40.1406 220.808 37.8524C227.483 42.4941 234.57 46.9396 242.69 48.4432C242.758 48.4432 242.896 48.4432 242.965 48.4432C240.694 54.327 229.341 46.6781 226.657 44.1938ZM230.648 36.5449C234.845 37.5256 241.795 40.4021 243.102 44.913C235.396 43.344 228.652 39.0292 222.253 34.5183C225.074 35.1067 227.827 35.8258 230.648 36.5449ZM273.723 34.9759C270.833 34.4529 267.943 33.7338 265.121 33.0147C260.924 31.9033 257.484 29.942 254.043 27.6539C257.002 28.0461 259.892 28.6345 262.988 29.3536C269.044 30.7265 275.649 31.5764 281.154 34.4529C279.021 35.5643 275.443 35.3028 273.723 34.9759ZM264.846 25.5619C268.011 25.6926 271.177 26.3464 274.273 27.1309C276.337 27.6539 282.049 28.6999 282.737 31.2495C277.025 28.3076 270.282 27.3924 263.952 25.9541C263.332 25.8234 262.713 25.6926 262.094 25.5619C262.988 25.4965 263.883 25.4965 264.846 25.5619ZM290.512 12.2907C289.549 12.5522 288.654 12.6829 287.691 12.8137C288.998 12.2253 290.237 11.6369 291.613 11.1793C293.54 10.5256 295.398 10.0679 297.187 9.3488C296.774 9.6103 296.361 9.8718 296.223 10.0025C294.434 11.1139 292.508 11.7677 290.512 12.2907Z" fill="#C08329"/>
<path d="M145.532 12.8142C137.826 18.3711 128.674 20.9207 119.453 23.1435C116.288 23.928 113.123 24.7778 109.889 25.6277C106.586 19.3517 102.595 14.6447 96.4711 10.6568C92.2738 7.97638 83.8102 4.96911 80.4385 10.3953C77.3421 15.3638 84.4983 19.5478 88.0764 21.9013C92.6866 24.9086 97.1592 26.6083 102.182 27.5236C97.6409 28.5042 93.0995 29.2234 88.6269 29.2887C82.7781 29.3541 76.9981 28.4389 71.2869 27.066C71.4245 24.0587 70.1171 21.1822 68.7409 18.5018C67.0895 15.1023 65.7821 12.2258 62.8233 9.67614C59.1076 6.53812 51.8826 2.02723 47.5476 7.06112C43.9696 11.1798 49.6807 16.3444 52.3643 19.2209C53.5341 20.5284 54.7726 21.7706 56.0112 22.9473C47.2036 20.3977 38.5336 17.325 30.2765 13.3372C30.1389 13.0757 29.9324 12.8142 29.5884 12.618C26.4231 11.049 24.0836 7.84563 21.4001 5.68824C19.3358 4.05386 17.0651 2.15798 14.5879 1.17735C11.0098 -0.260911 2.75271 -1.04541 0.619616 2.8771C-1.85752 7.51875 3.71604 12.0296 7.50056 13.8602C13.9686 16.9982 21.7441 16.9982 28.8315 16.9328C28.9691 16.9328 29.1067 16.9328 29.2443 16.8674C33.3729 18.8287 37.5703 20.5938 41.9053 22.1628C38.1896 22.0975 34.4739 22.4243 30.7581 23.2742C25.6662 24.451 16.3082 26.1507 17.6844 32.9498C19.1294 39.8795 27.8681 39.1604 33.2353 37.9183C37.0886 37.0684 41.0796 36.3493 44.7265 34.7803C48.7174 33.0805 52.2267 30.4001 55.736 28.0466C56.08 27.7851 56.2864 27.5236 56.4241 27.1967C56.9057 27.1967 57.3186 27.1967 57.8002 27.1967C64.1307 28.9619 70.7364 30.8577 77.3421 31.9691C73.5576 33.0151 69.7043 33.4728 66.195 35.3033C60.9655 37.9837 54.4974 43.279 57.4562 49.7512C58.626 52.3008 61.6536 53.543 64.4059 53.8699C68.1905 54.2621 71.2181 52.497 74.3145 50.6665C81.1266 46.5478 86.7002 39.8142 90.8976 33.2766C91.0352 33.0805 91.104 32.8844 91.104 32.6882C100.6 32.0999 110.164 29.0272 119.316 26.7391C118.834 27.1967 118.353 27.589 117.871 28.112C116.013 30.204 114.637 32.6229 113.398 35.1071C112.297 37.3299 110.784 39.9449 111.196 42.4945C111.334 43.4098 111.609 44.3251 112.229 45.0442C112.641 45.5672 113.536 45.8941 113.811 46.4824C114.086 47.0708 114.774 47.3323 115.394 47.3323C121.105 47.5938 125.44 43.2791 127.986 38.8335C129.293 36.5454 130.532 33.865 131.22 31.3807C131.908 28.7657 131.082 26.2815 130.05 23.8626C136.174 21.9667 142.092 19.5478 147.321 15.8214C149.317 14.5139 147.459 11.4413 145.532 12.8142ZM86.5626 11.049C87.5947 10.9183 88.6269 11.049 89.659 11.3759C90.76 11.7028 91.8609 12.1604 92.8931 12.7488C95.095 13.9255 97.0904 15.4292 98.9483 16.9982C99.774 17.7173 100.531 18.4364 101.219 19.1556C100.118 18.4364 98.9483 17.7173 97.8473 16.9982C96.0583 15.8214 94.2004 15.1023 92.205 14.3832C89.7966 13.5333 87.6635 12.3565 85.1176 11.8335C85.2552 11.1798 85.7369 10.8529 86.5626 11.049ZM89.3838 18.5672C88.2828 17.8481 87.1819 17.0635 86.1497 16.279C85.8057 16.0175 85.4616 15.756 85.2552 15.5599C86.6314 16.0175 87.9388 16.6713 89.315 17.1943C91.2416 17.9134 93.0995 18.3711 94.8885 19.4171C96.5399 20.3323 98.0538 21.4437 99.5676 22.4897C100.324 23.0127 100.944 23.4703 101.494 23.928C98.9483 23.4703 96.5399 22.7512 94.2004 21.5091C92.6178 20.6592 90.9664 19.6132 89.3838 18.5672ZM61.86 13.7948C63.4426 15.5599 64.2683 17.6519 65.2317 19.7439C65.8509 20.9861 66.4702 22.2282 66.9519 23.5357C64.8188 21.9013 63.2362 20.0054 61.516 17.6519C59.8645 15.3638 57.181 12.2912 56.08 9.34926C56.3552 9.48001 56.5617 9.54539 56.7681 9.67614C58.5571 10.8529 60.415 12.2912 61.86 13.7948ZM50.7817 11.8989C49.6807 9.93764 50.6441 9.08776 52.0891 8.89163C52.9148 12.7488 55.8736 16.3444 58.2131 19.4824C58.8324 20.3323 59.3829 21.0514 60.0021 21.7706C59.5205 21.3783 59.0388 20.9861 58.5571 20.5284C55.8736 18.0442 52.5707 15.0369 50.7817 11.8989ZM7.22532 3.79236C12.1108 3.53086 15.1384 5.29599 18.7165 8.1725C19.611 8.89163 20.4367 9.67614 21.3313 10.526C19.267 9.93764 17.2027 9.28389 15.0696 8.43401C11.6291 7.06112 7.84461 6.73425 4.95461 4.38074C5.22985 3.66161 5.98675 3.46548 7.22532 3.79236ZM7.7758 10.003C7.43175 9.80689 7.0877 9.54539 6.67485 9.34926C8.46389 10.0684 10.3906 10.526 12.3172 11.1798C13.6934 11.6374 14.932 12.2912 16.1705 12.8142C15.4825 12.6834 14.7255 12.5527 14.0375 12.4219C11.9044 11.9643 9.70246 11.1798 7.7758 10.003ZM29.1067 27.3275C32.4096 26.4122 35.7812 25.7585 39.1529 25.5623C40.0474 25.497 41.0107 25.497 41.9053 25.497C41.286 25.6277 40.6667 25.7585 39.9786 25.9546C33.6481 27.3928 26.9736 28.3081 21.1936 31.25C21.8817 28.7004 27.1112 27.8505 29.1067 27.3275ZM38.8777 33.0151C36.1941 33.7343 26.4231 36.6761 22.6386 34.5841C28.1434 31.6422 34.8867 30.7924 41.0107 29.3541C44.0384 28.635 46.9972 28.0466 49.956 27.6544C46.5155 29.8771 43.075 31.9037 38.8777 33.0151ZM73.3512 36.5454C76.1724 35.8263 78.9247 35.1725 81.7459 34.5188C75.4155 39.0297 68.6033 43.3444 60.9655 44.9134C62.3417 40.3372 69.085 37.5914 73.3512 36.5454ZM77.3421 44.1943C75.3466 46.0902 72.8695 47.5938 70.3924 48.9013C67.984 50.2088 62.4793 51.5817 61.0343 48.4437C61.1031 48.4437 61.1719 48.4437 61.2407 48.4437C69.3602 46.9401 76.4476 42.5599 83.1221 37.8529C81.3331 40.141 79.3376 42.2984 77.3421 44.1943ZM115.463 39.6834C116.013 37.6568 117.458 35.3033 118.559 33.4728C120.073 30.9231 122.137 29.2234 124.408 27.6544C123.169 30.2694 121.105 32.819 119.591 35.0418C118.146 37.1338 116.701 39.1604 115.325 41.2524C115.256 40.7948 115.325 40.2718 115.463 39.6834ZM118.284 43.5406C121.243 39.095 125.233 34.5841 127.573 29.681C127.435 32.2306 126.334 34.6495 124.889 37.1991C123.376 39.7488 121.243 42.4945 118.284 43.5406Z" fill="#C08329"/>
</g>
<defs>
<clipPath id="clip0">
<rect width="304" height="54" fill="white"/>
</clipPath>
</defs>
</svg>
