<svg width="57" height="59" viewBox="0 0 57 59" fill="none" xmlns="http://www.w3.org/2000/svg">
<path d="M35.7886 5.69476C34.734 4.62074 33.3313 4.02918 31.839 4.0293C30.6191 4.0293 29.4593 4.42454 28.5008 5.15543C27.5413 4.42442 26.3809 4.0293 25.161 4.0293C23.6686 4.0293 22.2658 4.62074 21.2113 5.69453C19.0338 7.90997 19.0337 11.5157 21.2113 13.7327L27.8904 20.527C28.0591 20.6985 28.28 20.7844 28.501 20.7844C28.722 20.7844 28.9431 20.6985 29.1117 20.5269L35.7885 13.7324C37.9656 11.5156 37.9655 7.90986 35.7886 5.69476ZM34.567 12.4899L28.501 18.6629L22.4329 12.49C20.9286 10.9586 20.9285 8.46777 22.4329 6.93723C23.1613 6.19535 24.1302 5.78686 25.161 5.78686C26.1919 5.78686 27.1612 6.19546 27.8905 6.93745C28.0525 7.10228 28.272 7.19483 28.5011 7.19483C28.5013 7.19483 28.5014 7.19483 28.5015 7.19483C28.7306 7.19471 28.9504 7.10205 29.1122 6.937C29.84 6.19523 30.8084 5.78686 31.839 5.78686C32.8697 5.78686 33.8384 6.19535 34.567 6.93745C36.0709 8.46766 36.0708 10.9586 34.567 12.4899Z" fill="#C08329"/>
<path d="M40.0151 21.1387C35.6976 21.1387 31.6386 22.7601 28.4931 25.7228C25.4646 22.879 21.421 21.1387 16.9849 21.1387C7.61941 21.1387 0 28.8918 0 38.4215C0 47.9513 7.61941 55.7044 16.9849 55.7044C21.3022 55.7044 25.3612 54.083 28.5069 51.1203C31.5354 53.9641 35.579 55.7044 40.0152 55.7044C49.3807 55.7044 57 47.9514 57 38.4215C57 28.8916 49.3807 21.1387 40.0151 21.1387ZM16.9848 53.9464C8.57182 53.9468 1.72726 46.9822 1.72726 38.4215C1.72726 29.8609 8.57182 22.8962 16.9849 22.8962C25.398 22.8962 32.2424 29.8609 32.2424 38.4215C32.2424 41.1501 31.5497 43.7931 30.23 46.1335C29.9661 45.7877 29.7199 45.4297 29.4936 45.0587C29.9686 44.1339 30.3437 43.1577 30.6094 42.1502C30.9296 40.9398 31.0908 39.6849 31.0908 38.4218C31.0908 36.4838 30.7177 34.6043 29.9819 32.8351C29.3336 31.2753 28.4296 29.8613 27.2923 28.6243C27.2875 28.6191 27.283 28.6138 27.278 28.6087C27.1734 28.4953 27.0677 28.3828 26.9591 28.2723C25.6637 26.9542 24.1552 25.9195 22.4751 25.1965C20.7363 24.4478 18.8894 24.0681 16.9848 24.0681C15.8183 24.0681 14.6599 24.2135 13.5394 24.4993C12.4513 24.7769 11.3964 25.1895 10.4027 25.7237C9.42626 26.2474 8.50959 26.8908 7.67819 27.6349C6.85024 28.3753 6.10757 29.2131 5.47078 30.1271C5.33718 30.3192 5.28541 30.5512 5.32449 30.7832C5.36245 31.0141 5.48803 31.2167 5.67573 31.3527C5.82313 31.4581 5.99469 31.5143 6.17426 31.5143C6.45414 31.5143 6.71776 31.3761 6.88019 31.144C8.00293 29.5342 9.49985 28.1961 11.2087 27.2774C12.0804 26.8087 13.0062 26.4478 13.9609 26.2042C14.9442 25.9522 15.9611 25.8257 16.9848 25.8257C18.6568 25.8257 20.2781 26.1584 21.8027 26.8146C23.2007 27.4162 24.4626 28.2677 25.5613 29.3424C23.9039 32.0678 23.0302 35.1908 23.0302 38.4214C23.0302 41.748 23.9596 44.8575 25.5666 47.497C25.1285 47.9258 24.6601 48.3228 24.1668 48.6811C23.4886 49.1745 22.7597 49.5974 22.0008 49.9407C20.4197 50.6543 18.7316 51.0175 16.9848 51.0175C15.4763 51.0175 14.0023 50.7445 12.6045 50.2055C11.4472 49.7603 10.3624 49.1404 9.38251 48.3623C8.41173 47.5926 7.55963 46.6833 6.85147 45.6592C5.38205 43.5325 4.60598 41.0296 4.60598 38.4214C4.60598 36.9134 4.86504 35.4383 5.37637 34.038C5.54214 33.5834 5.31302 33.0772 4.86626 32.9085C4.76952 32.8721 4.66821 32.8534 4.56568 32.8534C4.20754 32.8534 3.88168 33.083 3.7561 33.4264C3.17352 35.0223 2.87872 36.7036 2.87872 38.4214C2.87984 41.394 3.76423 44.246 5.43849 46.668C6.24451 47.8361 7.21529 48.8721 8.32189 49.7496C9.43884 50.6354 10.6733 51.3421 11.9929 51.8492C13.5866 52.4632 15.2655 52.775 16.9848 52.775L16.9871 52.7691V52.775C18.9747 52.775 20.8976 52.3612 22.702 51.5471C23.5679 51.1556 24.3982 50.6729 25.1708 50.1117C25.6575 49.7586 26.1229 49.3728 26.5624 48.959C26.7976 49.2689 27.0427 49.5706 27.2974 49.8634C24.4769 52.5024 20.846 53.9464 16.9848 53.9464ZM29.3637 38.4218C29.3637 39.5326 29.222 40.6339 28.9422 41.6943C28.8205 42.1551 28.6716 42.608 28.4989 43.0517C27.9265 41.5802 27.6364 40.024 27.6364 38.4218C27.6363 37.311 27.7779 36.2096 28.0578 35.1479C28.1794 34.6877 28.3282 34.2352 28.5006 33.792C29.0736 35.2642 29.3637 36.8201 29.3637 38.4218ZM40.0151 53.9468C31.602 53.9468 24.7575 46.9822 24.7575 38.4215C24.7575 35.693 25.4502 33.05 26.7697 30.7096C27.0334 31.0553 27.2793 31.4131 27.5054 31.7836C27.0308 32.7089 26.656 33.6852 26.3903 34.6922C26.0703 35.9037 25.9091 37.1575 25.9091 38.4218C25.9091 40.3598 26.2821 42.2392 27.018 44.0085C27.6673 45.5707 28.573 46.9865 29.7127 48.2248C29.715 48.2273 29.7171 48.23 29.7196 48.2324C29.825 48.3467 29.9315 48.46 30.0408 48.5712C31.3362 49.8893 32.8447 50.9241 34.5247 51.647C36.2636 52.3957 38.1106 52.7754 40.0163 52.7754C41.1817 52.7754 42.3413 52.6301 43.4616 52.343C44.5487 52.0655 45.6035 51.654 46.5973 51.1198C47.5737 50.5949 48.4903 49.9516 49.3217 49.2086C50.1496 48.4682 50.8924 47.6304 51.5292 46.7164C51.8044 46.3204 51.7124 45.7709 51.3243 45.4909C51.1769 45.3854 51.0041 45.3292 50.8245 45.3292C50.5446 45.3292 50.2809 45.4674 50.1198 45.6995C48.9971 47.3094 47.5001 48.6463 45.79 49.5661C44.9196 50.0348 43.9938 50.3957 43.0391 50.6395C42.0558 50.8902 41.0389 51.0178 40.0152 51.0178C38.3432 51.0178 36.7218 50.684 35.1961 50.0278C33.7994 49.4261 32.5375 48.5747 31.4388 47.5002C33.0961 44.7749 33.9697 41.6522 33.9697 38.4217C33.9697 35.0948 33.0401 31.9851 31.4328 29.3456C31.871 28.9167 32.3399 28.5195 32.8331 28.1611C33.5113 27.669 34.2402 27.2449 34.9991 26.9015C36.5813 26.188 38.2684 25.8259 40.0152 25.8259C41.5236 25.8259 42.9976 26.0989 44.3955 26.6368C44.4012 26.6392 44.407 26.6414 44.4116 26.6426L44.4139 26.6438C45.5688 27.0914 46.6513 27.7123 47.629 28.4893C48.5974 29.259 49.4472 30.1695 50.1531 31.1924C51.6202 33.3167 52.395 35.8172 52.3939 38.4219C52.3939 39.9299 52.1348 41.405 51.6235 42.8053C51.5441 43.0255 51.5522 43.2634 51.6489 43.4766C51.7444 43.691 51.916 43.8527 52.1324 43.9347C52.2304 43.9711 52.3306 43.9899 52.433 43.9899C52.7922 43.9899 53.1182 43.7601 53.2437 43.4168C53.8263 41.8186 54.1212 40.1384 54.1212 38.4218C54.1201 35.449 53.2355 32.5972 51.5613 30.1741C50.7553 29.0071 49.7857 27.97 48.6791 27.0936C47.5622 26.2078 46.3265 25.5012 45.0068 24.9926C43.4132 24.3787 41.7331 24.0681 40.0151 24.0681H40.014C38.0263 24.0681 36.1035 24.4806 34.299 25.2961C33.4331 25.6861 32.6017 26.1689 31.829 26.7315C31.3424 27.0846 30.877 27.4704 30.4376 27.8838C30.2024 27.5738 29.9573 27.2722 29.7025 26.9793C32.5227 24.3402 36.1538 22.8961 40.0151 22.8961C48.4282 22.8961 55.2727 29.8608 55.2727 38.4214C55.2727 46.9822 48.4282 53.9468 40.0151 53.9468Z" fill="#31524C"/>
</svg>
